RobotoSerifText-RegularCondItalic 06r.ufo
<glyph name="exclam" format="2">
  <advance width="236"/>
  <unicode hex="0021"/>
  <guideline x="243.0" y="735.0" angle="0" identifier="pMabtNdNM6"/>
  <outline>
    <contour>
      <point x="298" y="735" type="line"/>
      <point x="266" y="535"/>
      <point x="224" y="442"/>
      <point x="182" y="205" type="curve"/>
      <point x="130" y="205" type="line"/>
      <point x="171" y="446"/>
      <point x="165" y="552"/>
      <point x="196" y="735" type="curve"/>
    </contour>
    <component base="period" xOffset="-4" yOffset="-1"/>
  </outline>
</glyph>
<glyph name="plus" format="2">
  <advance width="560"/>
  <unicode hex="002B"/>
  <guideline x="497" y="312" angle="80" identifier="pUt8DNH9yM"/>
  <guideline x="339" y="144" angle="80" identifier="hgeW0XUQyH"/>
  <anchor x="332.0" y="549.0" identifier="Uy7hsQLADo"/>
  <anchor x="400.0" y="549.0" identifier="B5NuoGUNDK"/>
  <outline>
    <contour>
      <point x="340" y="539" type="line"/>
      <point x="271" y="144" type="line"/>
      <point x="339" y="144" type="line"/>
      <point x="408" y="539" type="line"/>
    </contour>
    <contour>
      <point x="516" y="370" type="line"/>
      <point x="173" y="370" type="line"/>
      <point x="163" y="312" type="line"/>
      <point x="506" y="312" type="line"/>
    </contour>
  </outline>
</glyph>
<glyph name="four" format="2">
  <advance width="462"/>
  <unicode hex="0034"/>
  <guideline x="55" y="178" angle="80" identifier="N1Da0kOzEt"/>
  <guideline x="466" y="609" angle="80" identifier="fExyKiUA5m"/>
  <guideline x="376" y="581" angle="80" identifier="W6IyHfjZ2q"/>
  <guideline x="485" y="173" angle="80" identifier="9Y9GOoyQbA"/>
  <outline>
    <contour>
      <point x="43" y="112" type="line"/>
      <point x="474" y="112" type="line"/>
      <point x="485" y="173" type="line"/>
      <point x="82" y="173" type="line"/>
      <point x="83" y="133" type="line"/>
      <point x="388" y="570" type="line"/>
      <point x="413" y="609" type="line"/>
      <point x="358" y="609" type="line"/>
      <point x="55" y="178" type="line"/>
    </contour>
    <contour>
      <point x="345" y="-77" type="line"/>
      <point x="466" y="609" type="line"/>
      <point x="391" y="609" type="line"/>
      <point x="376" y="581" type="line"/>
      <point x="260" y="-77" type="line"/>
    </contour>
  </outline>
</glyph>
<glyph name="at" format="2">
  <advance width="747"/>
  <unicode hex="0040"/>
  <outline>
    <contour>
      <point x="359" y="49.0" type="curve" smooth="yes"/>
      <point x="426" y="49"/>
      <point x="455" y="84"/>
      <point x="529" y="203" type="curve"/>
      <point x="510" y="240" type="line"/>
      <point x="459" y="145"/>
      <point x="421" y="96"/>
      <point x="379" y="96" type="curve" smooth="yes"/>
      <point x="349" y="96"/>
      <point x="328" y="124"/>
      <point x="328" y="188" type="curve" smooth="yes"/>
      <point x="328" y="314"/>
      <point x="390" y="429"/>
      <point x="451" y="429" type="curve" smooth="yes"/>
      <point x="492" y="429"/>
      <point x="520" y="396"/>
      <point x="524" y="322" type="curve"/>
      <point x="556" y="342" type="line"/>
      <point x="547" y="439"/>
      <point x="509" y="474"/>
      <point x="446" y="474" type="curve" smooth="yes"/>
      <point x="328" y="474"/>
      <point x="250" y="328"/>
      <point x="250" y="192" type="curve" smooth="yes"/>
      <point x="250" y="95"/>
      <point x="306" y="49"/>
    </contour>
    <contour>
      <point x="406" y="-153" type="curve" smooth="yes"/>
      <point x="481" y="-153"/>
      <point x="548" y="-132"/>
      <point x="593" y="-108" type="curve"/>
      <point x="581" y="-63" type="line"/>
      <point x="537" y="-85"/>
      <point x="481" y="-103"/>
      <point x="408" y="-103" type="curve" smooth="yes"/>
      <point x="254" y="-103"/>
      <point x="128" y="9"/>
      <point x="128" y="209" type="curve" smooth="yes"/>
      <point x="128.0" y="441.1079038695043"/>
      <point x="278.5968067030613" y="624.0"/>
      <point x="483" y="624" type="curve" smooth="yes"/>
      <point x="634" y="624"/>
      <point x="721" y="522"/>
      <point x="721" y="367" type="curve" smooth="yes"/>
      <point x="721.0" y="223.0"/>
      <point x="654.0" y="96.0"/>
      <point x="582" y="96" type="curve" smooth="yes"/>
      <point x="556.0" y="96.0"/>
      <point x="543.0" y="110.31818181818181"/>
      <point x="543" y="138" type="curve" smooth="yes"/>
      <point x="543" y="153"/>
      <point x="547" y="170"/>
      <point x="553" y="195" type="curve" smooth="yes"/>
      <point x="619" y="468" type="line"/>
      <point x="569" y="468" type="line"/>
      <point x="533" y="388" type="line"/>
      <point x="521" y="382" type="line"/>
      <point x="466" y="149" type="line"/>
      <point x="470" y="140" type="line"/>
      <point x="470" y="88"/>
      <point x="498" y="50"/>
      <point x="561" y="50" type="curve" smooth="yes"/>
      <point x="667.8555915140395" y="50.0"/>
      <point x="774.0" y="179"/>
      <point x="774" y="368" type="curve" smooth="yes"/>
      <point x="774" y="555"/>
      <point x="658" y="673"/>
      <point x="485" y="673" type="curve" smooth="yes"/>
      <point x="236.0" y="673.0"/>
      <point x="75" y="456.0"/>
      <point x="75" y="206" type="curve" smooth="yes"/>
      <point x="75" y="-27"/>
      <point x="220" y="-153"/>
    </contour>
  </outline>
</glyph>
<glyph name="A" format="2">
  <advance width="559"/>
  <unicode hex="0041"/>
  <guideline x="19.38275570590745" y="44" angle="81.75518433971325" identifier="s04sykHh3F"/>
  <guideline x="558.3827557059075" y="44" angle="81.75518433971325" identifier="soiIBG98wK"/>
  <guideline x="346.3513294398641" y="43" angle="81.75518433971325" identifier="ydyQ2dPfob"/>
  <guideline x="203.38275570590744" y="44" angle="81.75518433971325" identifier="LCgPN0HiYC"/>
  <anchor x="355.65833781725615" y="721" name="top"/>
  <anchor x="530" y="0" name="right"/>
  <anchor x="333" y="0" name="bottom"/>
  <outline>
    <contour>
      <point x="203.36502728091864" y="298.0" type="line"/>
      <point x="189.76228771270775" y="247.0" type="line"/>
      <point x="418.76228771270775" y="247.0" type="line"/>
      <point x="426.36502728091864" y="298.0" type="line"/>
    </contour>
    <contour>
      <point x="382.92989318487184" y="666.0" type="line"/>
      <point x="422.69701836634096" y="54.0" type="line"/>
      <point x="422.4770345040375" y="47.0"/>
      <point x="383.38275570590747" y="44.0"/>
      <point x="354.38275570590747" y="44.0" type="curve" smooth="yes"/>
      <point x="348.38275570590747" y="44.0" type="line"/>
      <point x="339.0" y="0.0" type="line"/>
      <point x="549.0" y="0.0" type="line"/>
      <point x="558.3827557059075" y="44.0" type="line"/>
      <point x="554.3827557059075" y="44.0" type="line"/>
      <point x="520.3827557059075" y="44.0"/>
      <point x="511.6027395682109" y="51.0"/>
      <point x="509.3883962192947" y="76.0" type="curve" smooth="yes"/>
      <point x="462.3126488907793" y="710.0" type="line"/>
      <point x="365.3126488907793" y="710.0" type="line"/>
      <point x="79.57695381555479" y="82.0" type="line" smooth="yes"/>
      <point x="65.63416583425426" y="52.0"/>
      <point x="53.38275570590745" y="44.0"/>
      <point x="23.38275570590745" y="44.0" type="curve"/>
      <point x="19.38275570590745" y="44.0" type="line"/>
      <point x="10.0" y="0.0" type="line"/>
      <point x="198.0" y="0.0" type="line"/>
      <point x="207.38275570590744" y="44.0" type="line"/>
      <point x="196.38275570590744" y="44.0" type="line" smooth="yes"/>
      <point x="167.38275570590744" y="44.0"/>
      <point x="131.60273956821092" y="51.0"/>
      <point x="132.94842849468776" y="62.0" type="curve"/>
      <point x="398.92989318487184" y="666.0" type="line"/>
    </contour>
  </outline>
</glyph>
<glyph name="E" format="2">
  <advance width="483"/>
  <unicode hex="0045"/>
  <guideline x="467.0" y="0.0" angle="80" identifier="JwIRWoKyDe"/>
  <anchor x="371" y="741" name="top"/>
  <anchor x="435" y="0" name="right"/>
  <anchor x="371" y="0" name="bottom"/>
  <outline>
    <contour>
      <point x="497" y="204.0" type="line"/>
      <point x="447" y="204.0" type="line"/>
      <point x="424" y="124" type="line" smooth="yes"/>
      <point x="406" y="60"/>
      <point x="383.0" y="53.0"/>
      <point x="309" y="53.0" type="curve" smooth="yes"/>
      <point x="196" y="53.0" type="line"/>
      <point x="302" y="657.0" type="line"/>
      <point x="394" y="657.0" type="line" smooth="yes"/>
      <point x="473.0" y="657.0"/>
      <point x="488" y="643"/>
      <point x="485" y="592" type="curve" smooth="yes"/>
      <point x="481" y="524.0" type="line"/>
      <point x="531" y="524.0" type="line"/>
      <point x="564" y="710.0" type="line"/>
      <point x="148" y="710.0" type="line"/>
      <point x="140" y="666.0" type="line"/>
      <point x="156" y="666.0" type="line" smooth="yes"/>
      <point x="200" y="666.0"/>
      <point x="212" y="658"/>
      <point x="207" y="627.0" type="curve" smooth="yes"/>
      <point x="111" y="80" type="line" smooth="yes"/>
      <point x="107" y="55"/>
      <point x="87" y="44.0"/>
      <point x="45" y="44.0" type="curve" smooth="yes"/>
      <point x="31" y="44.0" type="line"/>
      <point x="23.0" y="0.0" type="line"/>
      <point x="461.0" y="0.0" type="line"/>
    </contour>
    <contour>
      <point x="232" y="388.0" type="curve"/>
      <point x="223" y="340.0" type="line"/>
      <point x="289" y="338.0"/>
      <point x="356" y="334.0"/>
      <point x="422" y="332.0" type="curve"/>
      <point x="435" y="395.0" type="line"/>
      <point x="367" y="392.0"/>
      <point x="300" y="390.0"/>
    </contour>
  </outline>
</glyph>
<glyph name="G" format="2">
  <advance width="572"/>
  <unicode hex="0047"/>
  <anchor x="418" y="741" name="top"/>
  <anchor x="371" y="0" name="bottom"/>
  <anchor x="577" y="508" identifier="JSDWktSJfU"/>
  <anchor x="424" y="86" identifier="wf95FiS6Qr"/>
  <outline>
    <contour>
      <point x="427" y="84" type="curve"/>
      <point x="459" y="271" type="line" smooth="yes"/>
      <point x="465" y="303"/>
      <point x="439" y="309"/>
      <point x="401" y="309" type="curve"/>
      <point x="391" y="309" type="line"/>
      <point x="401" y="353" type="line"/>
      <point x="622" y="353" type="line"/>
      <point x="612" y="309" type="line"/>
      <point x="607" y="309" type="line" smooth="yes"/>
      <point x="575" y="309"/>
      <point x="550" y="302"/>
      <point x="545" y="273" type="curve" smooth="yes"/>
      <point x="507" y="59" type="line"/>
      <point x="462" y="25"/>
      <point x="395.6054054054054" y="-10.0"/>
      <point x="323" y="-10" type="curve" smooth="yes"/>
      <point x="174" y="-10.0"/>
      <point x="90.0" y="79.0"/>
      <point x="90" y="265" type="curve" smooth="yes"/>
      <point x="90.0" y="545.0"/>
      <point x="229" y="720.0"/>
      <point x="387" y="720.0" type="curve" smooth="yes"/>
      <point x="471" y="720.0"/>
      <point x="533.98225642316" y="678.1120646958314"/>
      <point x="553" y="558" type="curve"/>
      <point x="525" y="552" type="line"/>
      <point x="564" y="710" type="line"/>
      <point x="615" y="710" type="line"/>
      <point x="580" y="509" type="line"/>
      <point x="516" y="509" type="line"/>
      <point x="505.00141422355864" y="608.9871434221939"/>
      <point x="453" y="666.0"/>
      <point x="381" y="666.0" type="curve" smooth="yes"/>
      <point x="268" y="666.0"/>
      <point x="179.0" y="455.0"/>
      <point x="179" y="270" type="curve" smooth="yes"/>
      <point x="179.0" y="118.0"/>
      <point x="220" y="44.0"/>
      <point x="326" y="44" type="curve" smooth="yes"/>
      <point x="369" y="44.0"/>
      <point x="401" y="60"/>
    </contour>
  </outline>
</glyph>
<glyph name="M" format="2">
  <advance width="726"/>
  <unicode hex="004D"/>
  <guideline x="684" y="76" angle="80" identifier="XnMMy6GCwm"/>
  <anchor x="395" y="0" name="bottom"/>
  <outline>
    <contour>
      <point x="828" y="710" type="line"/>
      <point x="621" y="710" type="line"/>
      <point x="353" y="80" type="line"/>
      <point x="390" y="79" type="line"/>
      <point x="353" y="710" type="line"/>
      <point x="147" y="710" type="line"/>
      <point x="139" y="666" type="line"/>
      <point x="155" y="666" type="line" smooth="yes"/>
      <point x="199" y="666"/>
      <point x="211" y="658"/>
      <point x="206" y="627" type="curve" smooth="yes"/>
      <point x="110" y="80" type="line" smooth="yes"/>
      <point x="106" y="55"/>
      <point x="86" y="44"/>
      <point x="44" y="44" type="curve" smooth="yes"/>
      <point x="30" y="44" type="line"/>
      <point x="22" y="0" type="line"/>
      <point x="214" y="0" type="line"/>
      <point x="222" y="44" type="line"/>
      <point x="219" y="44" type="line" smooth="yes"/>
      <point x="195" y="44"/>
      <point x="163" y="47"/>
      <point x="164" y="54" type="curve" smooth="yes"/>
      <point x="277" y="696" type="line"/>
      <point x="264" y="690" type="line"/>
      <point x="318" y="-2" type="line"/>
      <point x="371" y="-2" type="line"/>
      <point x="678" y="689" type="line"/>
      <point x="665" y="693" type="line"/>
      <point x="551" y="54" type="line" smooth="yes"/>
      <point x="550" y="47"/>
      <point x="521" y="44"/>
      <point x="501" y="44" type="curve" smooth="yes"/>
      <point x="493" y="44" type="line"/>
      <point x="485" y="0" type="line"/>
      <point x="703" y="0" type="line"/>
      <point x="711" y="44" type="line"/>
      <point x="695" y="44" type="line" smooth="yes"/>
      <point x="651" y="44"/>
      <point x="639" y="52"/>
      <point x="644" y="83" type="curve" smooth="yes"/>
      <point x="740" y="630" type="line" smooth="yes"/>
      <point x="744" y="655"/>
      <point x="764" y="666"/>
      <point x="806" y="666" type="curve" smooth="yes"/>
      <point x="820" y="666" type="line"/>
    </contour>
  </outline>
</glyph>
<glyph name="O" format="2">
  <advance width="575"/>
  <unicode hex="004F"/>
  <anchor x="19.0" y="-31" name="top"/>
  <anchor x="150.0" y="710" name="bottom"/>
  <outline>
    <contour>
      <point x="90" y="243" type="curve" identifier="Kmp2ikpnMz"/>
      <point x="90" y="79" identifier="azDF0qP4j9"/>
      <point x="169" y="-9" identifier="e8Sma84OSh"/>
      <point x="303" y="-10" type="curve" smooth="yes" identifier="YvVvAigeIC"/>
      <point x="481" y="-11" identifier="0drQ2dns0j"/>
      <point x="610" y="186" identifier="Cs7GiTnxnd"/>
      <point x="610" y="467" type="curve" identifier="o5ajP3AiXo"/>
      <point x="610" y="631" identifier="DzyzbmwSWk"/>
      <point x="531" y="719" identifier="mVzebfxtbI"/>
      <point x="397" y="720" type="curve" smooth="yes" identifier="xk4Q00gOMJ"/>
      <point x="219" y="721" identifier="wY6etyoFRt"/>
      <point x="90" y="524" identifier="kHvi2i7CiM"/>
    </contour>
    <contour>
      <point x="521" y="498.0" type="curve"/>
      <point x="521" y="437"/>
      <point x="508" y="351"/>
      <point x="488" y="262.0" type="curve" smooth="yes"/>
      <point x="454" y="113.0"/>
      <point x="390" y="44.0"/>
      <point x="306" y="44.0" type="curve"/>
      <point x="230.0" y="44"/>
      <point x="179" y="99.0"/>
      <point x="179" y="212.0" type="curve"/>
      <point x="179.0" y="273.0"/>
      <point x="192.0" y="359.0"/>
      <point x="212.0" y="448.0" type="curve" smooth="yes"/>
      <point x="246.0" y="597.0"/>
      <point x="310.0" y="666.0"/>
      <point x="394.0" y="666.0" type="curve"/>
      <point x="470.0" y="666.0"/>
      <point x="521.0" y="611.0"/>
    </contour>
  </outline>
</glyph>
<glyph name="W" format="2">
  <advance width="835"/>
  <unicode hex="0057"/>
  <guideline x="653" y="403" angle="80" identifier="ul7Rz4lUzq"/>
  <anchor x="479.0" y="741" name="top"/>
  <outline>
    <contour>
      <point x="136" y="710" type="line"/>
      <point x="127" y="666" type="line"/>
      <point x="131" y="666" type="line" smooth="yes"/>
      <point x="160" y="666"/>
      <point x="178" y="663"/>
      <point x="179" y="629" type="curve" smooth="yes"/>
      <point x="195" y="0" type="line"/>
      <point x="295" y="0" type="line"/>
      <point x="542" y="653" type="line"/>
      <point x="522" y="656" type="line"/>
      <point x="535" y="0" type="line"/>
      <point x="631" y="0" type="line"/>
      <point x="872" y="623" type="line" smooth="yes"/>
      <point x="885" y="657"/>
      <point x="907" y="666"/>
      <point x="935" y="666" type="curve" smooth="yes"/>
      <point x="939" y="666" type="line"/>
      <point x="948" y="710" type="line"/>
      <point x="755" y="710" type="line"/>
      <point x="746" y="666" type="line"/>
      <point x="758" y="666" type="line" smooth="yes"/>
      <point x="788" y="666"/>
      <point x="821" y="659"/>
      <point x="820" y="648" type="curve"/>
      <point x="594" y="43" type="line"/>
      <point x="613" y="43" type="line"/>
      <point x="599" y="710" type="line"/>
      <point x="507" y="710" type="line"/>
      <point x="256" y="41" type="line"/>
      <point x="274" y="41" type="line"/>
      <point x="263" y="656" type="line"/>
      <point x="265" y="663"/>
      <point x="303" y="666"/>
      <point x="332" y="666" type="curve" smooth="yes"/>
      <point x="346" y="666" type="line"/>
      <point x="355" y="710" type="line"/>
    </contour>
  </outline>
</glyph>
<glyph name="Y" format="2">
  <advance width="532"/>
  <unicode hex="0059"/>
  <guideline x="136" y="710" angle="80" identifier="imlRBT8yc2"/>
  <guideline x="374" y="427" angle="80" identifier="RnUkBZTjbc"/>
  <anchor x="320.0" y="741" name="top"/>
  <anchor x="320.0" y="0" name="bottom"/>
  <outline>
    <contour>
      <point x="144" y="0" type="line"/>
      <point x="391" y="0" type="line"/>
      <point x="399" y="44" type="line"/>
      <point x="378" y="44" type="line" smooth="yes"/>
      <point x="334" y="44"/>
      <point x="322" y="52"/>
      <point x="327" y="83" type="curve" smooth="yes"/>
      <point x="368" y="314" type="line"/>
      <point x="353" y="270" type="line"/>
      <point x="565" y="625" type="line" smooth="yes"/>
      <point x="587" y="662"/>
      <point x="608" y="666"/>
      <point x="634" y="666" type="curve" smooth="yes"/>
      <point x="639" y="666" type="line"/>
      <point x="647" y="710" type="line"/>
      <point x="450" y="710" type="line"/>
      <point x="442" y="666" type="line"/>
      <point x="454" y="666" type="line" smooth="yes"/>
      <point x="486" y="666"/>
      <point x="519" y="660"/>
      <point x="517" y="650" type="curve"/>
      <point x="328" y="318" type="line"/>
      <point x="362" y="318" type="line"/>
      <point x="276" y="656" type="line"/>
      <point x="278" y="663"/>
      <point x="311" y="666"/>
      <point x="336" y="666" type="curve" smooth="yes"/>
      <point x="350" y="666" type="line"/>
      <point x="358" y="710" type="line"/>
      <point x="137" y="710" type="line"/>
      <point x="129" y="666" type="line"/>
      <point x="133" y="666" type="line" smooth="yes"/>
      <point x="160" y="666"/>
      <point x="177" y="666"/>
      <point x="184" y="640" type="curve" smooth="yes"/>
      <point x="282" y="272" type="line"/>
      <point x="278" y="314" type="line"/>
      <point x="237" y="80" type="line" smooth="yes"/>
      <point x="233" y="55"/>
      <point x="213" y="44"/>
      <point x="171" y="44" type="curve" smooth="yes"/>
      <point x="152" y="44" type="line"/>
    </contour>
  </outline>
</glyph>
<glyph name="bracketleft" format="2">
  <advance width="285"/>
  <unicode hex="005B"/>
  <guideline x="117" y="324" angle="80" identifier="OaziOAWDEz"/>
  <guideline x="245" y="-95" angle="80" identifier="hH7u7ZxqsU"/>
  <guideline x="192" y="750" angle="0" identifier="QuCW80HdIU"/>
  <guideline x="257" y="704" angle="0" identifier="9OhQr2UleW"/>
  <anchor x="68" y="-130" identifier="rBffvF6hMK"/>
  <outline>
    <contour>
      <point x="257" y="-84" type="line"/>
      <point x="139" y="-84" type="line"/>
      <point x="275" y="704" type="line"/>
      <point x="396" y="704" type="line"/>
      <point x="404" y="750" type="line"/>
      <point x="210" y="750" type="line"/>
      <point x="55" y="-130" type="line"/>
      <point x="249" y="-130" type="line"/>
    </contour>
  </outline>
</glyph>
<glyph name="underscore" format="2">
  <advance width="395"/>
  <unicode hex="005F"/>
  <guideline x="-28" y="-152" angle="80" identifier="tBMlr06fxk"/>
  <outline>
    <contour>
      <point x="-28" y="-98" type="line"/>
      <point x="-37" y="-152" type="line"/>
      <point x="375" y="-152" type="line"/>
      <point x="384" y="-98" type="line"/>
    </contour>
  </outline>
</glyph>
<glyph name="grave" format="2">
  <advance width="412"/>
  <unicode hex="0060"/>
  <anchor x="221" y="531" name="_top"/>
  <outline>
    <contour>
      <point x="257" y="700" type="curve" smooth="yes" identifier="bq0qgdiQDV"/>
      <point x="286" y="587" type="line" identifier="6rBCVB18Ra"/>
      <point x="286" y="568" type="line" identifier="vzuo1N3WTS"/>
      <point x="258" y="568" type="line" identifier="8MYU9j91Za"/>
      <point x="186" y="656" type="line" smooth="yes" identifier="y1Colbq1UL"/>
      <point x="168" y="678" identifier="OYJjzOaeys"/>
      <point x="158" y="696" identifier="Ar8JsK6aTX"/>
      <point x="158" y="715" type="curve" smooth="yes" identifier="LErETh5uN9"/>
      <point x="158" y="740" identifier="leiKDWKf1Q"/>
      <point x="174.41176470588235" y="759.0" identifier="VLKl3qd8gn"/>
      <point x="205" y="759" type="curve" smooth="yes" identifier="JVO2qI192B"/>
      <point x="230" y="759" identifier="07jPUit6YN"/>
      <point x="247" y="739" identifier="S1lgztgLRO"/>
    </contour>
  </outline>
</glyph>
<glyph name="a" format="2">
  <advance width="484"/>
  <unicode hex="0061"/>
  <anchor x="271.0" y="508" name="top"/>
  <anchor x="430.0" y="-10" name="right"/>
  <anchor x="286.0" y="0" name="bottom"/>
  <anchor x="442.0" y="156" identifier="xrkBWqunGm"/>
  <anchor x="505.0" y="20" identifier="Yk7PEuHY5O"/>
  <outline>
    <contour>
      <point x="415" y="-7" type="curve" smooth="yes"/>
      <point x="449" y="-7"/>
      <point x="477" y="6"/>
      <point x="495" y="20" type="curve"/>
      <point x="503" y="67" type="line"/>
      <point x="479" y="52"/>
      <point x="463" y="47"/>
      <point x="447" y="47" type="curve" smooth="yes"/>
      <point x="428" y="47"/>
      <point x="421" y="56"/>
      <point x="421" y="75" type="curve" smooth="yes"/>
      <point x="421" y="91"/>
      <point x="426" y="118"/>
      <point x="432" y="156" type="curve" smooth="yes"/>
      <point x="494" y="510" type="line"/>
      <point x="437" y="510" type="line"/>
      <point x="399" y="428" type="line"/>
      <point x="394" y="429" type="line"/>
      <point x="342" y="134" type="line"/>
      <point x="355" y="156" type="line"/>
      <point x="349" y="119"/>
      <point x="346" y="93"/>
      <point x="346" y="73" type="curve" smooth="yes"/>
      <point x="346" y="21"/>
      <point x="374" y="-7"/>
    </contour>
    <contour>
      <point x="195" y="-12" type="curve" smooth="yes"/>
      <point x="261" y="-12"/>
      <point x="334" y="34"/>
      <point x="383" y="172" type="curve"/>
      <point x="354" y="199" type="line"/>
      <point x="316" y="88"/>
      <point x="266" y="45"/>
      <point x="222" y="45" type="curve" smooth="yes"/>
      <point x="185" y="45"/>
      <point x="160" y="70"/>
      <point x="160" y="165" type="curve" smooth="yes"/>
      <point x="160" y="325"/>
      <point x="225" y="466"/>
      <point x="315" y="466" type="curve" smooth="yes"/>
      <point x="368" y="466"/>
      <point x="400" y="412"/>
      <point x="411" y="328" type="curve"/>
      <point x="444" y="377" type="line"/>
      <point x="432" y="460"/>
      <point x="396" y="518"/>
      <point x="316" y="518" type="curve" smooth="yes"/>
      <point x="177" y="518"/>
      <point x="69" y="363"/>
      <point x="69" y="164" type="curve" smooth="yes"/>
      <point x="69" y="52"/>
      <point x="118" y="-12"/>
    </contour>
  </outline>
</glyph>
<glyph name="b" format="2">
  <advance width="496"/>
  <unicode hex="0062"/>
  <outline>
    <contour>
      <point x="250" y="-12" type="curve" smooth="yes"/>
      <point x="414" y="-12"/>
      <point x="508" y="153"/>
      <point x="508" y="345" type="curve" smooth="yes"/>
      <point x="508" y="456"/>
      <point x="458" y="518"/>
      <point x="380" y="518" type="curve" smooth="yes"/>
      <point x="292" y="518"/>
      <point x="226" y="460"/>
      <point x="177" y="330" type="curve"/>
      <point x="202" y="307" type="line"/>
      <point x="248" y="421"/>
      <point x="307" y="461"/>
      <point x="356" y="461" type="curve" smooth="yes"/>
      <point x="395" y="461"/>
      <point x="417" y="427"/>
      <point x="417" y="343" type="curve" smooth="yes"/>
      <point x="417" y="185"/>
      <point x="358" y="41"/>
      <point x="252" y="41" type="curve" smooth="yes"/>
      <point x="193" y="41"/>
      <point x="154" y="77"/>
      <point x="144" y="134" type="curve"/>
      <point x="129" y="104"/>
      <point x="134" y="78"/>
      <point x="160" y="58" type="curve"/>
      <point x="278" y="735" type="line"/>
      <point x="123" y="735" type="line"/>
      <point x="115" y="693" type="line"/>
      <point x="124" y="691" type="line" smooth="yes"/>
      <point x="163" y="682"/>
      <point x="182" y="676"/>
      <point x="177" y="647" type="curve" smooth="yes"/>
      <point x="74" y="58" type="line"/>
      <point x="109" y="25"/>
      <point x="165" y="-12"/>
    </contour>
  </outline>
</glyph>
<glyph name="d" format="2">
  <advance width="518"/>
  <unicode hex="0064"/>
  <anchor x="606" y="735" name="right"/>
  <anchor x="280" y="0" name="bottom"/>
  <anchor x="541" y="735" identifier="MiUKrYxhJI"/>
  <outline>
    <contour>
      <point x="447" y="-7" type="curve" smooth="yes"/>
      <point x="481" y="-7"/>
      <point x="509" y="6"/>
      <point x="527" y="20" type="curve"/>
      <point x="537" y="67" type="line"/>
      <point x="511" y="52"/>
      <point x="495" y="47"/>
      <point x="479" y="47" type="curve" smooth="yes"/>
      <point x="460" y="47"/>
      <point x="453" y="58"/>
      <point x="453" y="75" type="curve" smooth="yes"/>
      <point x="453" y="92"/>
      <point x="455" y="114"/>
      <point x="462" y="152" type="curve" smooth="yes"/>
      <point x="564" y="735" type="line"/>
      <point x="409" y="735" type="line"/>
      <point x="401" y="693" type="line"/>
      <point x="410" y="691" type="line" smooth="yes"/>
      <point x="450" y="682"/>
      <point x="468" y="676"/>
      <point x="463" y="646" type="curve" smooth="yes"/>
      <point x="375" y="146" type="line"/>
      <point x="387" y="156" type="line"/>
      <point x="381" y="119"/>
      <point x="378" y="93"/>
      <point x="378" y="73" type="curve" smooth="yes"/>
      <point x="378" y="22"/>
      <point x="406" y="-7"/>
    </contour>
    <contour>
      <point x="213" y="-12.0" type="curve" smooth="yes"/>
      <point x="295" y="-12.0"/>
      <point x="363" y="46"/>
      <point x="411" y="171" type="curve"/>
      <point x="386" y="199" type="line"/>
      <point x="340" y="85"/>
      <point x="281" y="44"/>
      <point x="232" y="44" type="curve" smooth="yes"/>
      <point x="190" y="44"/>
      <point x="169.0" y="81.0"/>
      <point x="169" y="163" type="curve" smooth="yes"/>
      <point x="169" y="336"/>
      <point x="236" y="466"/>
      <point x="335" y="466" type="curve" smooth="yes"/>
      <point x="393" y="466"/>
      <point x="429" y="431"/>
      <point x="448" y="357" type="curve"/>
      <point x="492" y="400" type="line"/>
      <point x="465" y="477"/>
      <point x="409" y="518"/>
      <point x="333" y="518" type="curve" smooth="yes"/>
      <point x="189" y="518"/>
      <point x="79" y="370"/>
      <point x="79" y="161" type="curve" smooth="yes"/>
      <point x="79" y="55"/>
      <point x="133" y="-12"/>
    </contour>
  </outline>
</glyph>
<glyph name="f" format="2">
  <advance width="320"/>
  <unicode hex="0066"/>
  <guideline x="71" y="581" angle="80" identifier="WLbWISkCDq"/>
  <guideline x="404" y="508" angle="80" identifier="DqOZqRblhY"/>
  <guideline x="202" y="592" angle="80" identifier="9MWfWQvGC0"/>
  <guideline x="294" y="596" angle="80" identifier="p1JVq86Q2q"/>
  <outline>
    <contour>
      <point x="86" y="508" type="line"/>
      <point x="77" y="459" type="line"/>
      <point x="370" y="459" type="line"/>
      <point x="380" y="508" type="line"/>
    </contour>
    <contour>
      <point x="358" y="697" type="curve" smooth="yes"/>
      <point x="387" y="697"/>
      <point x="414" y="690"/>
      <point x="432" y="680" type="curve"/>
      <point x="443" y="733" type="line"/>
      <point x="427" y="743"/>
      <point x="397" y="752"/>
      <point x="358" y="752" type="curve" smooth="yes"/>
      <point x="258" y="752"/>
      <point x="195" y="708"/>
      <point x="179" y="597" type="curve" smooth="yes"/>
      <point x="57" y="-223" type="line"/>
      <point x="132" y="-223" type="line"/>
      <point x="270" y="596" type="line" smooth="yes"/>
      <point x="282" y="666"/>
      <point x="311" y="697"/>
    </contour>
  </outline>
</glyph>
<glyph name="g" format="2">
  <advance width="484"/>
  <unicode hex="0067"/>
  <anchor x="271.0" y="508" name="top"/>
  <anchor x="50" y="-63.0" identifier="5KicjAJAUc"/>
  <anchor x="437" y="436.0" identifier="hpmFJeMH5G"/>
  <outline>
    <contour>
      <point x="207" y="-14" type="curve" smooth="yes"/>
      <point x="288" y="-14"/>
      <point x="362" y="45"/>
      <point x="410" y="171" type="curve"/>
      <point x="384" y="197" type="line"/>
      <point x="337.7321544687187" y="83.3420316296786"/>
      <point x="278.93288590604027" y="43.0"/>
      <point x="229" y="43" type="curve" smooth="yes"/>
      <point x="182.43478260869566" y="43.0"/>
      <point x="166.0" y="85.0"/>
      <point x="166" y="163" type="curve" smooth="yes"/>
      <point x="166" y="321"/>
      <point x="226" y="465"/>
      <point x="334" y="465" type="curve" smooth="yes"/>
      <point x="395" y="465"/>
      <point x="433" y="412"/>
      <point x="437" y="326" type="curve"/>
      <point x="480" y="378" type="line"/>
      <point x="465" y="460"/>
      <point x="424" y="518"/>
      <point x="336" y="518" type="curve" smooth="yes"/>
      <point x="169" y="518"/>
      <point x="75" y="353"/>
      <point x="75" y="161" type="curve" smooth="yes"/>
      <point x="75.0" y="49.0"/>
      <point x="126" y="-14"/>
    </contour>
    <contour>
      <point x="345" y="-17" type="line" smooth="yes"/>
      <point x="325" y="-130"/>
      <point x="279" y="-182"/>
      <point x="200" y="-182" type="curve" smooth="yes"/>
      <point x="145" y="-182"/>
      <point x="99" y="-157"/>
      <point x="72" y="-112" type="curve"/>
      <point x="63" y="-142"/>
      <point x="77" y="-174"/>
      <point x="100" y="-176" type="curve"/>
      <point x="120" y="-63" type="line"/>
      <point x="38" y="-63" type="line"/>
      <point x="22" y="-156" type="line"/>
      <point x="49" y="-194"/>
      <point x="114" y="-233"/>
      <point x="202" y="-233" type="curve" smooth="yes"/>
      <point x="316" y="-233"/>
      <point x="406" y="-157"/>
      <point x="430" y="-21" type="curve" smooth="yes"/>
      <point x="524" y="511" type="line"/>
      <point x="464" y="511" type="line"/>
      <point x="433" y="434" type="line"/>
      <point x="425" y="436" type="line"/>
    </contour>
  </outline>
</glyph>
<glyph name="j" format="2">
  <advance width="229"/>
  <unicode hex="006A"/>
  <outline>
    <contour>
      <point x="74" y="-47.0" type="line" smooth="yes"/>
      <point x="58" y="-145"/>
      <point x="23" y="-180.0"/>
      <point x="-27" y="-180.0" type="curve" smooth="yes"/>
      <point x="-58" y="-180.0"/>
      <point x="-83" y="-167.0"/>
      <point x="-98" y="-160.0" type="curve"/>
      <point x="-109" y="-215.0" type="line"/>
      <point x="-91" y="-226.0"/>
      <point x="-60" y="-236.0"/>
      <point x="-23" y="-236.0" type="curve" smooth="yes"/>
      <point x="65" y="-236.0"/>
      <point x="131" y="-196"/>
      <point x="156" y="-54.0" type="curve" smooth="yes"/>
      <point x="253" y="508.0" type="line"/>
      <point x="94" y="508.0" type="line"/>
      <point x="87" y="466.0" type="line"/>
      <point x="99" y="464.0" type="line" smooth="yes"/>
      <point x="137" y="458"/>
      <point x="156" y="448"/>
      <point x="151" y="419.0" type="curve" smooth="yes"/>
    </contour>
    <contour>
      <point x="231" y="745.0" type="curve"/>
      <point x="190" y="745.0"/>
      <point x="167.0" y="720.0"/>
      <point x="167.0" y="681" type="curve" smooth="yes"/>
      <point x="167.0" y="641.0"/>
      <point x="189" y="622.0"/>
      <point x="225" y="622.0" type="curve"/>
      <point x="266" y="622.0"/>
      <point x="289.0" y="647.0"/>
      <point x="289.0" y="686.0" type="curve" smooth="yes"/>
      <point x="289.0" y="726.0"/>
      <point x="267" y="745.0"/>
    </contour>
  </outline>
</glyph>
<glyph name="l" format="2">
  <advance width="261"/>
  <unicode hex="006C"/>
  <guideline x="107" y="172" angle="80" identifier="u0KMyJ2PMX"/>
  <anchor x="173" y="746" name="top"/>
  <anchor x="278" y="735" name="right"/>
  <anchor x="333" y="391" name="mid"/>
  <anchor x="176" y="0" name="bottom"/>
  <outline>
    <contour>
      <point x="193" y="166" type="curve" smooth="yes"/>
      <point x="292" y="735" type="line"/>
      <point x="137" y="735" type="line"/>
      <point x="129" y="693" type="line"/>
      <point x="138" y="691" type="line" smooth="yes"/>
      <point x="178" y="682"/>
      <point x="196" y="676"/>
      <point x="191" y="646" type="curve" smooth="yes"/>
      <point x="107" y="172" type="line" smooth="yes"/>
      <point x="98" y="124"/>
      <point x="92" y="95"/>
      <point x="92" y="72" type="curve" smooth="yes"/>
      <point x="92.0" y="18.0"/>
      <point x="125.9753086419753" y="-7.0"/>
      <point x="178" y="-7" type="curve" smooth="yes"/>
      <point x="215" y="-7.0"/>
      <point x="244.0" y="5.0"/>
      <point x="263" y="20" type="curve"/>
      <point x="271" y="67" type="line"/>
      <point x="256" y="55"/>
      <point x="231" y="48.0"/>
      <point x="212" y="48" type="curve" smooth="yes"/>
      <point x="188.2962962962963" y="48.0"/>
      <point x="180.0" y="56.0"/>
      <point x="180" y="78" type="curve" smooth="yes"/>
      <point x="180" y="95"/>
      <point x="186" y="124"/>
    </contour>
  </outline>
</glyph>
<glyph name="m" format="2">
  <advance width="730"/>
  <unicode hex="006D"/>
  <anchor x="415" y="-10" name="bottom"/>
  <outline>
    <contour>
      <point x="93" y="0" type="line" identifier="6G0K4ni7zq"/>
      <point x="167" y="419" type="line" smooth="yes" identifier="TWxLhS1LF0"/>
      <point x="171" y="449" identifier="4H1rIvvqoQ"/>
      <point x="153" y="457" identifier="JQqtRu1YZC"/>
      <point x="115" y="464" type="curve" smooth="yes" identifier="iGKYXCVnfp"/>
      <point x="103" y="466" type="line" identifier="EV9fu2ziMa"/>
      <point x="111" y="508" type="line" identifier="6j6jCDpnOu"/>
      <point x="260" y="508" type="line" identifier="dpT6tHsMFZ"/>
      <point x="238" y="372" type="line" identifier="HMV6GVEXe5"/>
      <point x="243" y="360" type="line" identifier="NC234f92oo"/>
      <point x="179" y="0" type="line" identifier="gz28S8mh0f"/>
    </contour>
    <contour>
      <point x="680" y="166" type="line" smooth="yes" identifier="5moADCyyfe"/>
      <point x="673" y="123" identifier="vpVDRT16qW"/>
      <point x="667" y="94" identifier="MOQtpizMlX"/>
      <point x="667" y="76" type="curve" smooth="yes" identifier="S5ezzDtduw"/>
      <point x="667" y="56" identifier="IJivGL6MFT"/>
      <point x="674" y="48" identifier="pG70wNMEJH"/>
      <point x="694" y="48" type="curve" smooth="yes" identifier="fRub8S7lAk"/>
      <point x="711" y="48" identifier="ny6mwl7FVn"/>
      <point x="734" y="56" identifier="2dEDhcvoaN"/>
      <point x="748" y="67" type="curve" identifier="7dEdYG9vbc"/>
      <point x="740" y="20" type="line" identifier="CGUvcRCmTe"/>
      <point x="722" y="6" identifier="rIARMpkbIn"/>
      <point x="695" y="-7" identifier="RhMs16PDMK"/>
      <point x="660" y="-7" type="curve" smooth="yes" identifier="VKF7zLjH58"/>
      <point x="610" y="-7" identifier="ZEfELvvHIV"/>
      <point x="579" y="17" identifier="n5tzNvNxLq"/>
      <point x="579" y="72" type="curve" smooth="yes" identifier="JP31eoCisY"/>
      <point x="579" y="93" identifier="DOxLidi9lj"/>
      <point x="585" y="124" identifier="mL0LJ8mwQB"/>
      <point x="594" y="172" type="curve" smooth="yes" identifier="Ggo35uqy90"/>
      <point x="626" y="344" type="line" smooth="yes" identifier="CWRS4TxKdy"/>
      <point x="633" y="381" identifier="bDqe4TZcJQ"/>
      <point x="635.0" y="401" identifier="N47p67j1D0"/>
      <point x="635" y="420" type="curve" smooth="yes" identifier="cVXR6qR1kF"/>
      <point x="635.0" y="451" identifier="eQ7wCyjmAo"/>
      <point x="621.6285714285714" y="459.0" identifier="YodiIdQ619"/>
      <point x="599" y="459" type="curve" smooth="yes" identifier="qrfCK5ag1u"/>
      <point x="563" y="459" identifier="ZuyVm58noY"/>
      <point x="512" y="414" identifier="b5zR0SqjUd"/>
      <point x="462" y="322" type="curve" identifier="I9YUJrjzgx"/>
      <point x="435" y="341" type="line" identifier="uCtQigzs5e"/>
      <point x="492" y="450" identifier="LP3C6UlowW"/>
      <point x="551.5948717948718" y="518.0" identifier="Cg0b1LyBsi"/>
      <point x="631" y="518" type="curve" smooth="yes" identifier="KsqjRJyEPA"/>
      <point x="691" y="518" identifier="yeNnJWJ8Kv"/>
      <point x="721" y="476" identifier="C2HUM8S4qt"/>
      <point x="721" y="412" type="curve" smooth="yes" identifier="MvBg2S9N5g"/>
      <point x="721.0" y="392.0" identifier="1ekFvnJK7k"/>
      <point x="718" y="362" identifier="kujdvZhfte"/>
      <point x="710" y="322" type="curve" smooth="yes" identifier="NCfMg9jkN3"/>
    </contour>
    <contour>
      <point x="329" y="0" type="line" identifier="tB6bmx3uj3"/>
      <point x="390" y="344" type="line" smooth="yes" identifier="IIX8syzbSS"/>
      <point x="395" y="373" identifier="jurinqkulO"/>
      <point x="398" y="395" identifier="Sv9lnWPmva"/>
      <point x="398" y="412" type="curve" smooth="yes" identifier="oRzmsts4lE"/>
      <point x="398" y="449" identifier="tA2OWa9uYA"/>
      <point x="385" y="459" identifier="waI5z6Dlr7"/>
      <point x="364" y="459" type="curve" smooth="yes" identifier="Es2a2L1N7e"/>
      <point x="326" y="459" identifier="4p14bxCwKp"/>
      <point x="275" y="414" identifier="wifTP21mXX"/>
      <point x="225" y="322" type="curve" identifier="JfQ3RYUAG1"/>
      <point x="200" y="341" type="line" identifier="TmfSkNy42A"/>
      <point x="257" y="450" identifier="ZahckAgZD2"/>
      <point x="315.0" y="518.0" identifier="xedDxsGRMI"/>
      <point x="393" y="518" type="curve" smooth="yes" identifier="N4k8iuUwtc"/>
      <point x="449" y="518" identifier="qRcCpHMJr8"/>
      <point x="482" y="475" identifier="bbsRFpwKFR"/>
      <point x="482" y="404" type="curve" smooth="yes" identifier="YDkFrVTTzh"/>
      <point x="482" y="383" identifier="E0GRnXAgl9"/>
      <point x="478" y="355" identifier="3I1MTBlPAi"/>
      <point x="472" y="322" type="curve" smooth="yes" identifier="KGBNlYNhTZ"/>
      <point x="416" y="0" type="line" identifier="RVpUSXUGyM"/>
    </contour>
  </outline>
</glyph>
<glyph name="r" format="2">
  <advance width="354"/>
  <unicode hex="0072"/>
  <anchor x="250" y="508" name="top"/>
  <anchor x="180" y="0" name="bottom"/>
  <outline>
    <contour>
      <point x="93" y="0" type="line"/>
      <point x="179" y="0" type="line"/>
      <point x="243" y="363" type="line"/>
      <point x="238" y="372" type="line"/>
      <point x="262" y="508" type="line"/>
      <point x="111" y="508" type="line"/>
      <point x="103" y="466" type="line"/>
      <point x="115" y="464" type="line" smooth="yes"/>
      <point x="152" y="457"/>
      <point x="171" y="449"/>
      <point x="167" y="419" type="curve" smooth="yes"/>
    </contour>
    <contour>
      <point x="410" y="512" type="line"/>
      <point x="404" y="515"/>
      <point x="391" y="518"/>
      <point x="377" y="518" type="curve" smooth="yes"/>
      <point x="304.28323699421964" y="518.0"/>
      <point x="247" y="437"/>
      <point x="207" y="316" type="curve"/>
      <point x="225" y="297" type="line"/>
      <point x="264" y="398"/>
      <point x="306.1278195488722" y="438.0"/>
      <point x="355" y="438" type="curve" smooth="yes"/>
      <point x="368" y="438"/>
      <point x="385" y="435"/>
      <point x="394" y="431" type="curve"/>
    </contour>
  </outline>
</glyph>
<glyph name="s" format="2">
  <advance width="391"/>
  <unicode hex="0073"/>
  <guideline x="45" y="66" angle="80" identifier="vKQIce6lTG"/>
  <guideline x="415" y="457" angle="80" identifier="veMxLvr3Wc"/>
  <anchor x="244" y="508" name="top"/>
  <anchor x="247" y="0" name="bottom"/>
  <outline>
    <contour>
      <point x="213" y="-11" type="curve" smooth="yes"/>
      <point x="318.69767441860466" y="-11.0"/>
      <point x="390.9999559988257" y="48.99795394539568"/>
      <point x="393" y="142" type="curve" smooth="yes"/>
      <point x="394" y="223"/>
      <point x="336" y="258"/>
      <point x="282" y="288" type="curve" smooth="yes"/>
      <point x="233" y="315"/>
      <point x="189" y="334"/>
      <point x="190" y="387" type="curve" smooth="yes"/>
      <point x="191" y="433"/>
      <point x="216" y="466"/>
      <point x="270" y="466" type="curve" smooth="yes"/>
      <point x="313.48314606741576" y="466.0"/>
      <point x="353" y="447"/>
      <point x="360" y="404" type="curve"/>
      <point x="375" y="434"/>
      <point x="351" y="464"/>
      <point x="341" y="466" type="curve"/>
      <point x="323" y="372" type="line"/>
      <point x="400" y="372" type="line"/>
      <point x="417" y="470" type="line"/>
      <point x="396" y="493"/>
      <point x="342.4825174825175" y="518.0"/>
      <point x="273" y="518" type="curve" smooth="yes"/>
      <point x="177" y="518"/>
      <point x="111" y="464"/>
      <point x="109" y="373" type="curve" smooth="yes"/>
      <point x="108" y="292"/>
      <point x="166" y="258"/>
      <point x="221" y="227" type="curve" smooth="yes"/>
      <point x="269" y="200"/>
      <point x="313" y="181"/>
      <point x="312" y="132" type="curve" smooth="yes"/>
      <point x="309.99974290217983" y="76.99292980994515"/>
      <point x="275.93023255813955" y="41.0"/>
      <point x="218" y="41" type="curve" smooth="yes"/>
      <point x="164.8512396694215" y="41.0"/>
      <point x="129" y="56"/>
      <point x="109" y="96" type="curve"/>
      <point x="95" y="71"/>
      <point x="95" y="47"/>
      <point x="120" y="34" type="curve"/>
      <point x="142" y="155" type="line"/>
      <point x="64" y="155" type="line"/>
      <point x="45" y="46" type="line"/>
      <point x="79" y="19"/>
      <point x="131.8324022346369" y="-11.0"/>
    </contour>
  </outline>
</glyph>
<glyph name="u" format="2">
  <advance width="500"/>
  <unicode hex="0075"/>
  <guideline x="521" y="508" angle="80" identifier="eUNd6rkJpB"/>
  <guideline x="436" y="508" angle="80" identifier="Z0docjhqZQ"/>
  <guideline x="213" y="192" angle="80" identifier="qHbEig0IFf"/>
  <guideline x="125" y="186" angle="80" identifier="xPmiaF34vV"/>
  <anchor x="283" y="508" name="top"/>
  <anchor x="429" y="0" name="right"/>
  <anchor x="264" y="0" name="bottom"/>
  <outline>
    <contour>
      <point x="199" y="189" type="curve" smooth="yes"/>
      <point x="256" y="509" type="line"/>
      <point x="100" y="508" type="line"/>
      <point x="92" y="466" type="line"/>
      <point x="102" y="464" type="line" smooth="yes"/>
      <point x="140" y="456"/>
      <point x="159" y="449"/>
      <point x="154" y="419" type="curve" smooth="yes"/>
      <point x="112" y="186" type="line" smooth="yes"/>
      <point x="106" y="153"/>
      <point x="102" y="124"/>
      <point x="102" y="105" type="curve" smooth="yes"/>
      <point x="99" y="33"/>
      <point x="138" y="-9"/>
      <point x="200" y="-9" type="curve" smooth="yes"/>
      <point x="281" y="-9"/>
      <point x="345" y="38"/>
      <point x="396" y="158" type="curve"/>
      <point x="371" y="190" type="line"/>
      <point x="320" y="67"/>
      <point x="268" y="52"/>
      <point x="234" y="52" type="curve" smooth="yes"/>
      <point x="199" y="52"/>
      <point x="188" y="74"/>
      <point x="189" y="112" type="curve" smooth="yes"/>
      <point x="189" y="131"/>
      <point x="193" y="154"/>
    </contour>
    <contour>
      <point x="371" y="156" type="line"/>
      <point x="365" y="119"/>
      <point x="362" y="93"/>
      <point x="362" y="73" type="curve" smooth="yes"/>
      <point x="362" y="22"/>
      <point x="390" y="-7"/>
      <point x="431" y="-7" type="curve" smooth="yes"/>
      <point x="465" y="-7"/>
      <point x="493" y="6"/>
      <point x="511" y="20" type="curve"/>
      <point x="519" y="67" type="line"/>
      <point x="495" y="52"/>
      <point x="479" y="47"/>
      <point x="463" y="47" type="curve" smooth="yes"/>
      <point x="444" y="47"/>
      <point x="437" y="58"/>
      <point x="437" y="75" type="curve" smooth="yes"/>
      <point x="437" y="91"/>
      <point x="439" y="114"/>
      <point x="446" y="152" type="curve" smooth="yes"/>
      <point x="509" y="508" type="line"/>
      <point x="423" y="508" type="line"/>
      <point x="359" y="146" type="line"/>
    </contour>
  </outline>
</glyph>
<glyph name="z" format="2">
  <advance width="406"/>
  <unicode hex="007A"/>
  <guideline x="446" y="508" angle="80" identifier="ps34BD0TSy"/>
  <guideline x="132" y="508" angle="80" identifier="vPChyV5Z0b"/>
  <guideline x="158.0" y="382.5" angle="74.96218409641776" identifier="vJY1JL8Mme"/>
  <anchor x="252.0" y="508" name="top"/>
  <anchor x="272.0" y="0" name="bottom"/>
  <outline>
    <contour>
      <point x="298" y="-12" type="curve" smooth="yes"/>
      <point x="390" y="-12"/>
      <point x="436" y="54"/>
      <point x="429" y="177" type="curve"/>
      <point x="390" y="186" type="line"/>
      <point x="378.4570090887238" y="98.46565225615525"/>
      <point x="350.0" y="62.0"/>
      <point x="297" y="62" type="curve" smooth="yes"/>
      <point x="249.0" y="62.0"/>
      <point x="199.4664323485321" y="90.1542974151573"/>
      <point x="159" y="147" type="curve"/>
      <point x="136" y="113" type="line"/>
      <point x="177" y="33"/>
      <point x="235" y="-12"/>
    </contour>
    <contour>
      <point x="90" y="0" type="line"/>
      <point x="430" y="458" type="line"/>
      <point x="439" y="508" type="line"/>
      <point x="131" y="508" type="line"/>
      <point x="103" y="349" type="line"/>
      <point x="149" y="349" type="line"/>
      <point x="166" y="413" type="line" smooth="yes"/>
      <point x="176" y="449"/>
      <point x="201" y="456"/>
      <point x="270" y="456" type="curve" smooth="yes"/>
      <point x="368" y="456" type="line"/>
      <point x="365" y="472" type="line"/>
      <point x="59" y="55" type="line"/>
      <point x="49" y="0" type="line"/>
    </contour>
  </outline>
</glyph>
<glyph name="braceleft" format="2">
  <advance width="277"/>
  <unicode hex="007B"/>
  <anchor x="100" y="335" identifier="wA30GWlbYu"/>
  <outline>
    <contour>
      <point x="249" y="240" type="curve" smooth="yes"/>
      <point x="250" y="270"/>
      <point x="233" y="287"/>
      <point x="143" y="311" type="curve"/>
      <point x="144" y="316" type="line"/>
      <point x="245" y="325"/>
      <point x="267" y="345"/>
      <point x="268" y="380" type="curve" smooth="yes"/>
      <point x="270" y="423"/>
      <point x="234" y="514"/>
      <point x="236" y="590" type="curve" smooth="yes"/>
      <point x="238" y="657"/>
      <point x="280" y="700"/>
      <point x="377" y="704" type="curve" smooth="yes"/>
      <point x="377" y="704"/>
      <point x="378" y="704"/>
      <point x="379" y="704" type="curve"/>
      <point x="373" y="748" type="line"/>
      <point x="371" y="748"/>
      <point x="368" y="748"/>
      <point x="365" y="748" type="curve" smooth="yes"/>
      <point x="225" y="749"/>
      <point x="157" y="692"/>
      <point x="154" y="597" type="curve" smooth="yes"/>
      <point x="152" y="517"/>
      <point x="195" y="422"/>
      <point x="210" y="359" type="curve"/>
      <point x="223" y="374" type="line"/>
      <point x="91" y="335" type="line"/>
      <point x="85" y="299" type="line"/>
      <point x="205" y="237" type="line"/>
      <point x="195" y="256" type="line"/>
      <point x="145" y="175"/>
      <point x="52.00769344161818" y="88.35389831443614"/>
      <point x="50" y="-4" type="curve" smooth="yes"/>
      <point x="46" y="-103"/>
      <point x="130" y="-141"/>
      <point x="234" y="-146" type="curve"/>
      <point x="234" y="-146" type="line"/>
      <point x="246" y="-105" type="line"/>
      <point x="246" y="-105" type="line"/>
      <point x="173" y="-95"/>
      <point x="132" y="-67"/>
      <point x="134" y="-1" type="curve" smooth="yes"/>
      <point x="137" y="95"/>
      <point x="247" y="186"/>
    </contour>
  </outline>
</glyph>
<glyph name="currency" format="2">
  <advance width="560"/>
  <unicode hex="00A4"/>
  <outline>
    <contour>
      <point x="138" y="114" type="line"/>
      <point x="245" y="224" type="line"/>
      <point x="199" y="265" type="line"/>
      <point x="99" y="162" type="line"/>
    </contour>
    <contour>
      <point x="161" y="589" type="line"/>
      <point x="231" y="487" type="line"/>
      <point x="289" y="526" type="line"/>
      <point x="213" y="633" type="line"/>
    </contour>
    <contour>
      <point x="473" y="116" type="line"/>
      <point x="526" y="161" type="line"/>
      <point x="456" y="261" type="line"/>
      <point x="398" y="223" type="line"/>
    </contour>
    <contour>
      <point x="588" y="584" type="line"/>
      <point x="548" y="632" type="line"/>
      <point x="441" y="523" type="line"/>
      <point x="487" y="481" type="line"/>
    </contour>
    <contour>
      <point x="242" y="348" type="curve" smooth="yes"/>
      <point x="242" y="451"/>
      <point x="282" y="515"/>
      <point x="356" y="515" type="curve" smooth="yes"/>
      <point x="411" y="515"/>
      <point x="444" y="470"/>
      <point x="444" y="400" type="curve" smooth="yes"/>
      <point x="444" y="297"/>
      <point x="404" y="233"/>
      <point x="330" y="233" type="curve" smooth="yes"/>
      <point x="275" y="233"/>
      <point x="242" y="278"/>
    </contour>
    <contour>
      <point x="170" y="350" type="curve" smooth="yes"/>
      <point x="170" y="248"/>
      <point x="232" y="170"/>
      <point x="323" y="170" type="curve" smooth="yes"/>
      <point x="437" y="170"/>
      <point x="516" y="258"/>
      <point x="516" y="398" type="curve" smooth="yes"/>
      <point x="516" y="500"/>
      <point x="454" y="578"/>
      <point x="363" y="578" type="curve" smooth="yes"/>
      <point x="249" y="578"/>
      <point x="170" y="490"/>
    </contour>
  </outline>
</glyph>
<glyph name="Eth" format="2">
  <advance width="637"/>
  <unicode hex="00D0"/>
  <outline>
    <contour>
      <point x="76" y="331" type="line"/>
      <point x="399" y="331" type="line"/>
      <point x="408" y="379" type="line"/>
      <point x="85" y="379" type="line"/>
    </contour>
    <component base="D"/>
  </outline>
</glyph>
<glyph name="eogonek" format="2">
  <advance width="422"/>
  <unicode hex="0119"/>
  <outline>
    <contour>
      <point x="363" y="36" type="move"/>
      <point x="383" y="56"/>
      <point x="402" y="83"/>
      <point x="417" y="116" type="curve"/>
      <point x="376" y="139" type="line"/>
      <point x="345" y="72"/>
      <point x="306" y="40"/>
      <point x="253" y="40" type="curve" smooth="yes"/>
      <point x="191" y="40"/>
      <point x="162" y="84"/>
      <point x="162" y="179" type="curve" smooth="yes"/>
      <point x="162" y="328"/>
      <point x="234" y="466"/>
      <point x="319" y="466" type="curve" smooth="yes"/>
      <point x="354" y="466"/>
      <point x="372" y="443"/>
      <point x="372" y="394" type="curve" smooth="yes"/>
      <point x="372" y="299"/>
      <point x="304" y="260"/>
      <point x="142" y="257" type="curve"/>
      <point x="132" y="212" type="line"/>
      <point x="339" y="211"/>
      <point x="452" y="277"/>
      <point x="452" y="396" type="curve" smooth="yes"/>
      <point x="452" y="475"/>
      <point x="403" y="518"/>
      <point x="328" y="518" type="curve" smooth="yes"/>
      <point x="189" y="518"/>
      <point x="74" y="366"/>
      <point x="74" y="190" type="curve" smooth="yes"/>
      <point x="74" y="63"/>
      <point x="134" y="-12"/>
      <point x="241" y="-12" type="curve" smooth="yes"/>
      <point x="271" y="-12"/>
      <point x="296" y="-5"/>
      <point x="320" y="8" type="curve"/>
      <point x="320" y="22" type="line"/>
      <point x="216" y="-38"/>
      <point x="165" y="-90"/>
      <point x="165" y="-151" type="curve" smooth="yes"/>
      <point x="165" y="-202"/>
      <point x="199" y="-235"/>
      <point x="254" y="-235" type="curve" smooth="yes"/>
      <point x="290" y="-235"/>
      <point x="320" y="-221"/>
      <point x="347" y="-193" type="curve"/>
      <point x="326" y="-164" type="line"/>
      <point x="310" y="-181"/>
      <point x="297" y="-187"/>
      <point x="281" y="-187" type="curve" smooth="yes"/>
      <point x="260" y="-187"/>
      <point x="250" y="-176"/>
      <point x="250" y="-148" type="curve" smooth="yes"/>
      <point x="250" y="-89"/>
      <point x="288" y="-37"/>
      <point x="363" y="36" type="curve"/>
    </contour>
  </outline>
</glyph>
<glyph name="dotlessj" format="2">
  <advance width="259"/>
  <unicode hex="0237"/>
  <anchor x="194" y="508" name="top"/>
  <outline>
    <contour>
      <point x="74" y="-47" type="line" smooth="yes"/>
      <point x="58" y="-145"/>
      <point x="23" y="-180"/>
      <point x="-27" y="-180" type="curve" smooth="yes"/>
      <point x="-58" y="-180"/>
      <point x="-83" y="-167"/>
      <point x="-98" y="-160" type="curve"/>
      <point x="-109" y="-215" type="line"/>
      <point x="-91" y="-226"/>
      <point x="-60" y="-236"/>
      <point x="-23" y="-236" type="curve" smooth="yes"/>
      <point x="65" y="-236"/>
      <point x="131" y="-196"/>
      <point x="156" y="-54" type="curve" smooth="yes"/>
      <point x="253" y="508" type="line"/>
      <point x="94" y="508" type="line"/>
      <point x="87" y="466" type="line"/>
      <point x="99" y="464" type="line" smooth="yes"/>
      <point x="137" y="458"/>
      <point x="156" y="448"/>
      <point x="151" y="419" type="curve" smooth="yes"/>
    </contour>
  </outline>
</glyph>
<glyph name="ogonek" format="2">
  <advance width="495"/>
  <unicode hex="02DB"/>
  <anchor x="339" y="9" name="_right"/>
  <outline>
    <contour>
      <point x="421" y="33" type="line"/>
      <point x="291" y="-28"/>
      <point x="232" y="-85"/>
      <point x="232" y="-151" type="curve" smooth="yes"/>
      <point x="232" y="-202"/>
      <point x="266" y="-235"/>
      <point x="321" y="-235" type="curve" smooth="yes"/>
      <point x="357" y="-235"/>
      <point x="387" y="-221"/>
      <point x="414" y="-193" type="curve"/>
      <point x="393" y="-164" type="line"/>
      <point x="377" y="-181"/>
      <point x="364" y="-187"/>
      <point x="348" y="-187" type="curve" smooth="yes"/>
      <point x="327.0" y="-187.0"/>
      <point x="317.0" y="-176.0"/>
      <point x="317" y="-148" type="curve" smooth="yes"/>
      <point x="317" y="-89"/>
      <point x="355" y="-37"/>
      <point x="437" y="7" type="curve"/>
    </contour>
  </outline>
</glyph>
<glyph name="quoteright" format="2">
  <advance width="198"/>
  <unicode hex="2019"/>
  <outline>
    <contour>
      <point x="182" y="453" type="line"/>
      <point x="240" y="502"/>
      <point x="289.0" y="586.9130434782609"/>
      <point x="289" y="651" type="curve" smooth="yes"/>
      <point x="289" y="691"/>
      <point x="265" y="715"/>
      <point x="229" y="715" type="curve" smooth="yes"/>
      <point x="195" y="715"/>
      <point x="172" y="693"/>
      <point x="172" y="661" type="curve" smooth="yes"/>
      <point x="172" y="630"/>
      <point x="198" y="606"/>
      <point x="235" y="606" type="curve" smooth="yes"/>
      <point x="239" y="606"/>
      <point x="243" y="609"/>
      <point x="247" y="620" type="curve"/>
      <point x="238" y="625" type="line"/>
      <point x="228.640730551861" y="578.203652759305"/>
      <point x="180" y="528"/>
      <point x="132" y="493" type="curve"/>
    </contour>
  </outline>
</glyph>
<glyph name="perthousand" format="2">
  <advance width="950"/>
  <unicode hex="2030"/>
  <outline>
    <contour>
      <point x="250" y="720" type="curve" smooth="yes"/>
      <point x="139" y="720"/>
      <point x="100" y="602"/>
      <point x="100" y="523" type="curve" smooth="yes"/>
      <point x="100" y="439"/>
      <point x="144" y="382"/>
      <point x="213" y="382" type="curve" smooth="yes"/>
      <point x="309" y="382"/>
      <point x="363" y="476"/>
      <point x="363" y="579" type="curve" smooth="yes"/>
      <point x="363" y="663"/>
      <point x="319" y="720"/>
    </contour>
    <contour>
      <point x="246" y="676" type="curve" smooth="yes"/>
      <point x="279" y="676"/>
      <point x="296" y="645"/>
      <point x="296" y="590" type="curve" smooth="yes"/>
      <point x="296" y="524"/>
      <point x="273" y="426"/>
      <point x="217" y="426" type="curve"/>
      <point x="184" y="426"/>
      <point x="167" y="457"/>
      <point x="167" y="512" type="curve" smooth="yes"/>
      <point x="167" y="597"/>
      <point x="196" y="676"/>
    </contour>
    <contour>
      <point x="538" y="328" type="curve" smooth="yes"/>
      <point x="427" y="328"/>
      <point x="388" y="210"/>
      <point x="388" y="131" type="curve" smooth="yes"/>
      <point x="388" y="47"/>
      <point x="432" y="-10"/>
      <point x="501" y="-10" type="curve" smooth="yes"/>
      <point x="597" y="-10"/>
      <point x="651" y="84"/>
      <point x="651" y="187" type="curve" smooth="yes"/>
      <point x="651" y="271"/>
      <point x="607" y="328"/>
    </contour>
    <contour>
      <point x="534" y="284" type="curve" smooth="yes"/>
      <point x="567" y="284"/>
      <point x="584" y="253"/>
      <point x="584" y="198" type="curve" smooth="yes"/>
      <point x="584" y="132"/>
      <point x="561" y="34"/>
      <point x="505" y="34" type="curve"/>
      <point x="472" y="34"/>
      <point x="455" y="65"/>
      <point x="455" y="120" type="curve" smooth="yes"/>
      <point x="455" y="205"/>
      <point x="484" y="284"/>
    </contour>
    <contour>
      <point x="843" y="328" type="curve" smooth="yes"/>
      <point x="732" y="328"/>
      <point x="693" y="210"/>
      <point x="693" y="131" type="curve" smooth="yes"/>
      <point x="693" y="47"/>
      <point x="737" y="-10"/>
      <point x="806" y="-10" type="curve" smooth="yes"/>
      <point x="902" y="-10"/>
      <point x="956" y="84"/>
      <point x="956" y="187" type="curve" smooth="yes"/>
      <point x="956" y="271"/>
      <point x="912" y="328"/>
    </contour>
    <contour>
      <point x="839" y="284" type="curve" smooth="yes"/>
      <point x="872" y="284"/>
      <point x="889" y="253"/>
      <point x="889" y="198" type="curve" smooth="yes"/>
      <point x="889" y="132"/>
      <point x="866" y="34"/>
      <point x="810" y="34" type="curve"/>
      <point x="777" y="34"/>
      <point x="760" y="65"/>
      <point x="760" y="120" type="curve" smooth="yes"/>
      <point x="760" y="205"/>
      <point x="789" y="284"/>
    </contour>
    <component base="fraction" xOffset="146"/>
  </outline>
</glyph>
<glyph name="fl" format="2">
  <advance width="524"/>
  <unicode hex="FB02"/>
  <outline>
    <contour>
      <point x="86" y="508" type="line"/>
      <point x="77" y="459" type="line"/>
      <point x="370" y="459" type="line"/>
      <point x="380" y="508" type="line"/>
    </contour>
    <contour>
      <point x="368" y="697" type="curve" smooth="yes"/>
      <point x="410" y="697"/>
      <point x="446" y="681"/>
      <point x="478" y="629" type="curve"/>
      <point x="515" y="687" type="line"/>
      <point x="477" y="725"/>
      <point x="435" y="752"/>
      <point x="368" y="752" type="curve" smooth="yes"/>
      <point x="277" y="752"/>
      <point x="194" y="703"/>
      <point x="178" y="592" type="curve" smooth="yes"/>
      <point x="57" y="-223" type="line"/>
      <point x="132" y="-223" type="line"/>
      <point x="270" y="596" type="line" smooth="yes"/>
      <point x="282" y="666"/>
      <point x="316" y="697"/>
    </contour>
    <contour>
      <point x="457" y="166" type="curve" smooth="yes"/>
      <point x="556" y="735" type="line"/>
      <point x="401" y="735" type="line"/>
      <point x="464" y="697" type="line"/>
      <point x="371" y="172" type="line" smooth="yes"/>
      <point x="362" y="124"/>
      <point x="356" y="95"/>
      <point x="356" y="72" type="curve" smooth="yes"/>
      <point x="356" y="18"/>
      <point x="390" y="-7"/>
      <point x="442" y="-7" type="curve" smooth="yes"/>
      <point x="479" y="-7"/>
      <point x="508" y="5"/>
      <point x="527" y="20" type="curve"/>
      <point x="535" y="67" type="line"/>
      <point x="520" y="55"/>
      <point x="495" y="48"/>
      <point x="476" y="48" type="curve" smooth="yes"/>
      <point x="452" y="48"/>
      <point x="444" y="56"/>
      <point x="444" y="78" type="curve" smooth="yes"/>
      <point x="444" y="95"/>
      <point x="450" y="124"/>
    </contour>
  </outline>
</glyph>
<glyph name="F.alt" format="2">
  <advance width="449"/>
  <anchor x="437" y="257.0" identifier="h44hNyuLEl"/>
  <anchor x="397" y="257.0" identifier="QoahueknZU"/>
  <outline>
    <contour>
      <point x="201" y="83" type="curve" smooth="yes"/>
      <point x="302" y="657" type="line"/>
      <point x="388" y="657" type="line" smooth="yes"/>
      <point x="467" y="657"/>
      <point x="482" y="643"/>
      <point x="479" y="592" type="curve" smooth="yes"/>
      <point x="475" y="524" type="line"/>
      <point x="525" y="524" type="line"/>
      <point x="558" y="710" type="line"/>
      <point x="148" y="710" type="line"/>
      <point x="140" y="666" type="line"/>
      <point x="156" y="666" type="line" smooth="yes"/>
      <point x="200" y="666"/>
      <point x="212" y="658"/>
      <point x="207" y="627" type="curve" smooth="yes"/>
      <point x="111" y="80" type="line" smooth="yes"/>
      <point x="107" y="55"/>
      <point x="87" y="44"/>
      <point x="45" y="44" type="curve" smooth="yes"/>
      <point x="31" y="44" type="line"/>
      <point x="23" y="0" type="line"/>
      <point x="280" y="0" type="line"/>
      <point x="288" y="44" type="line"/>
      <point x="252" y="44" type="line" smooth="yes"/>
      <point x="208" y="44"/>
      <point x="196" y="52"/>
    </contour>
    <contour>
      <point x="214" y="379.0" type="line"/>
      <point x="203" y="328.0" type="line"/>
      <point x="378" y="328.0" type="line" smooth="yes"/>
      <point x="403" y="328"/>
      <point x="404" y="300"/>
      <point x="398" y="263.0" type="curve" smooth="yes"/>
      <point x="397" y="257.0" type="line"/>
      <point x="437" y="257.0" type="line"/>
      <point x="471" y="451.0" type="line"/>
      <point x="431" y="451.0" type="line"/>
      <point x="430" y="443.0" type="line" smooth="yes"/>
      <point x="425" y="402"/>
      <point x="409" y="379"/>
      <point x="385" y="379.0" type="curve" smooth="yes"/>
    </contour>
  </outline>
</glyph>
<glyph name="at.uc" format="2">
  <advance width="749"/>
  <outline>
    <contour>
      <point x="375" y="121.0" type="curve" smooth="yes"/>
      <point x="432.0" y="121.0"/>
      <point x="471.0" y="156"/>
      <point x="545" y="274" type="curve"/>
      <point x="526" y="312" type="line"/>
      <point x="475" y="217"/>
      <point x="436" y="169"/>
      <point x="395" y="169.0" type="curve" smooth="yes"/>
      <point x="365" y="169"/>
      <point x="344.0" y="199"/>
      <point x="344" y="268" type="curve" smooth="yes"/>
      <point x="344" y="378"/>
      <point x="395" y="500"/>
      <point x="459" y="500" type="curve" smooth="yes"/>
      <point x="499" y="500"/>
      <point x="529" y="465"/>
      <point x="535" y="377" type="curve"/>
      <point x="566" y="401" type="line"/>
      <point x="554" y="509"/>
      <point x="516" y="546"/>
      <point x="453" y="546" type="curve" smooth="yes"/>
      <point x="334" y="546"/>
      <point x="266" y="404"/>
      <point x="266" y="280" type="curve" smooth="yes"/>
      <point x="266" y="169"/>
      <point x="324" y="121"/>
    </contour>
    <contour>
      <point x="431" y="-68" type="curve" smooth="yes"/>
      <point x="506" y="-68"/>
      <point x="573" y="-46"/>
      <point x="615" y="-23" type="curve"/>
      <point x="607" y="25" type="line"/>
      <point x="563" y="1"/>
      <point x="503" y="-19"/>
      <point x="431" y="-19" type="curve" smooth="yes"/>
      <point x="277" y="-19"/>
      <point x="153" y="101"/>
      <point x="153" y="298" type="curve" smooth="yes"/>
      <point x="153" y="516"/>
      <point x="291" y="684"/>
      <point x="484" y="684" type="curve" smooth="yes"/>
      <point x="633" y="684"/>
      <point x="720" y="581"/>
      <point x="720" y="427" type="curve" smooth="yes"/>
      <point x="720" y="276"/>
      <point x="660" y="166"/>
      <point x="598" y="166" type="curve" smooth="yes"/>
      <point x="574" y="166"/>
      <point x="559" y="180"/>
      <point x="559" y="207" type="curve" smooth="yes"/>
      <point x="559" y="223"/>
      <point x="562" y="238"/>
      <point x="567" y="263" type="curve"/>
      <point x="626" y="540" type="line"/>
      <point x="576" y="540" type="line"/>
      <point x="541" y="460" type="line"/>
      <point x="530" y="455" type="line"/>
      <point x="481" y="219" type="line"/>
      <point x="487" y="211" type="line"/>
      <point x="488" y="156"/>
      <point x="516" y="121"/>
      <point x="580" y="121" type="curve" smooth="yes"/>
      <point x="680" y="121"/>
      <point x="773" y="246"/>
      <point x="773" y="427" type="curve" smooth="yes"/>
      <point x="773" y="616"/>
      <point x="655" y="733"/>
      <point x="484" y="733" type="curve" smooth="yes"/>
      <point x="266" y="733"/>
      <point x="100" y="544"/>
      <point x="100" y="298" type="curve" smooth="yes"/>
      <point x="100" y="66"/>
      <point x="246" y="-68"/>
    </contour>
  </outline>
</glyph>
<glyph name="backslash.uc" format="2">
  <advance width="395"/>
  <outline>
    <contour>
      <point x="203" y="749" type="line"/>
      <point x="369" y="-38" type="line"/>
      <point x="306" y="-38" type="line"/>
      <point x="140" y="749" type="line"/>
    </contour>
  </outline>
</glyph>
<glyph name="bracketleft.uc" format="2">
  <advance width="289"/>
  <guideline x="280" y="720" angle="80" identifier="8PjBBUfOYf"/>
  <guideline x="270" y="-60" angle="80" identifier="K99VKIPQGj"/>
  <outline>
    <contour>
      <point x="67" y="-60" type="line"/>
      <point x="253" y="-60" type="line"/>
      <point x="261" y="-14" type="line"/>
      <point x="151" y="-14" type="line"/>
      <point x="280" y="720" type="line"/>
      <point x="390" y="720" type="line"/>
      <point x="398" y="766" type="line"/>
      <point x="213" y="766" type="line"/>
    </contour>
  </outline>
</glyph>
<glyph name="eight.midprop" format="2">
  <advance width="489"/>
  <outline>
    <contour>
      <point x="255" y="44" type="curve" smooth="yes" identifier="ykAIiIoD02"/>
      <point x="184" y="44" identifier="w9YYQBx7jV"/>
      <point x="151" y="88" identifier="bVSt9lBD67"/>
      <point x="151" y="155" type="curve" smooth="yes" identifier="nIUjKE9nJ7"/>
      <point x="151" y="182" identifier="XZWBMnEz8a"/>
      <point x="155" y="213" identifier="ZIMkU06n8x"/>
      <point x="162" y="238" type="curve" smooth="yes" identifier="BL5rNfyHAD"/>
      <point x="184" y="308" identifier="LDfL9nrx8p"/>
      <point x="227" y="344" identifier="Jh4JNgjJDj"/>
      <point x="289" y="344" type="curve" smooth="yes" identifier="CmXSJv13Jj"/>
      <point x="351" y="344" identifier="zC0TSbk46C"/>
      <point x="389" y="307" identifier="FqFishCLnO"/>
      <point x="389" y="235" type="curve" smooth="yes" identifier="c2jW0T0Cfy"/>
      <point x="389" y="211" identifier="EldeXzdkJN"/>
      <point x="385" y="179" identifier="RkS6sxpfOo"/>
      <point x="379" y="153" type="curve" smooth="yes" identifier="TtN0EoXb0e"/>
      <point x="363" y="86" identifier="8H0GcGj500"/>
      <point x="317" y="44" identifier="fKobpD6FUz"/>
    </contour>
    <contour>
      <point x="309" y="396" type="curve" smooth="yes" identifier="Gn7uhmTb5q"/>
      <point x="260" y="396" identifier="y6X7beTAK8"/>
      <point x="233" y="428" identifier="B59SC7ec44"/>
      <point x="233" y="489" type="curve" smooth="yes" identifier="2tVhZXkNdG"/>
      <point x="233" y="513" identifier="yNtrEIDCll"/>
      <point x="238" y="544" identifier="bMVPK4PdIZ"/>
      <point x="244" y="568" type="curve" smooth="yes" identifier="0E1TjGbNT6"/>
      <point x="261" y="633" identifier="g6k2J0r7zA"/>
      <point x="296" y="666" identifier="3IJQej90op"/>
      <point x="347" y="666" type="curve" smooth="yes" identifier="4OVpN1wizY"/>
      <point x="406" y="666" identifier="8p4O6osXiB"/>
      <point x="426" y="630" identifier="lOeMclbhxt"/>
      <point x="426" y="579" type="curve" smooth="yes" identifier="em2tQsk7X8"/>
      <point x="426" y="558" identifier="ov8ORbG2gc"/>
      <point x="423" y="536" identifier="DFIKm5Fzye"/>
      <point x="418" y="512" type="curve" smooth="yes" identifier="6LwbFChIwQ"/>
      <point x="400" y="429" identifier="bccoGxVtR7"/>
      <point x="368" y="396" identifier="ooGzBAZYT6"/>
    </contour>
    <contour>
      <point x="353" y="720" type="curve" smooth="yes"/>
      <point x="221" y="720"/>
      <point x="153" y="617"/>
      <point x="153" y="515" type="curve" smooth="yes"/>
      <point x="153" y="445"/>
      <point x="193" y="384"/>
      <point x="253" y="368" type="curve"/>
      <point x="243" y="380" type="line"/>
      <point x="240" y="362" type="line"/>
      <point x="255" y="378" type="line"/>
      <point x="152" y="368"/>
      <point x="58" y="283"/>
      <point x="58" y="171" type="curve" smooth="yes"/>
      <point x="58" y="68"/>
      <point x="132" y="-10"/>
      <point x="251" y="-10" type="curve" smooth="yes"/>
      <point x="387" y="-10"/>
      <point x="478" y="97"/>
      <point x="478" y="212" type="curve" smooth="yes"/>
      <point x="478" y="301"/>
      <point x="435" y="355"/>
      <point x="349" y="378" type="curve"/>
      <point x="358" y="362" type="line"/>
      <point x="361" y="380" type="line"/>
      <point x="347" y="368" type="line"/>
      <point x="444" y="385"/>
      <point x="511" y="469"/>
      <point x="511" y="572" type="curve" smooth="yes"/>
      <point x="511" y="665"/>
      <point x="448" y="720"/>
    </contour>
  </outline>
</glyph>
<glyph name="f.short" format="2">
  <advance width="299"/>
  <outline>
    <contour>
      <point x="86" y="508" type="line"/>
      <point x="77" y="459" type="line"/>
      <point x="370" y="459" type="line"/>
      <point x="380" y="508" type="line"/>
    </contour>
    <contour>
      <point x="354" y="697.0" type="curve" smooth="yes"/>
      <point x="371" y="697"/>
      <point x="387" y="694"/>
      <point x="398" y="689" type="curve"/>
      <point x="409" y="741" type="line"/>
      <point x="395" y="748"/>
      <point x="377" y="752"/>
      <point x="353" y="752" type="curve" smooth="yes"/>
      <point x="263" y="752"/>
      <point x="195" y="708"/>
      <point x="178" y="592" type="curve" smooth="yes"/>
      <point x="57" y="-223" type="line"/>
      <point x="132" y="-223" type="line"/>
      <point x="270" y="596" type="line" smooth="yes"/>
      <point x="281.78197031448315" y="665.9234325185632"/>
      <point x="309" y="697"/>
    </contour>
  </outline>
</glyph>
<glyph name="f_h" format="2">
  <advance width="768"/>
  <outline>
    <contour>
      <point x="86" y="508" type="line"/>
      <point x="380" y="508" type="line"/>
      <point x="370" y="459" type="line"/>
      <point x="77" y="459" type="line"/>
    </contour>
    <contour>
      <point x="368" y="697" type="curve" smooth="yes"/>
      <point x="316" y="697"/>
      <point x="282" y="666"/>
      <point x="270" y="596" type="curve" smooth="yes"/>
      <point x="132" y="-223" type="line"/>
      <point x="57" y="-223" type="line"/>
      <point x="178" y="592" type="line" smooth="yes"/>
      <point x="194" y="703"/>
      <point x="277" y="752"/>
      <point x="368" y="752" type="curve" smooth="yes"/>
      <point x="435" y="752"/>
      <point x="477" y="725"/>
      <point x="515" y="687" type="curve"/>
      <point x="478" y="629" type="line"/>
      <point x="446" y="681"/>
      <point x="410" y="697"/>
    </contour>
    <contour>
      <point x="342" y="0" type="line" identifier="jUx2UXcmIy"/>
      <point x="464" y="697" type="line" identifier="mLDdIsea5U"/>
      <point x="401" y="735" type="line" identifier="vvQBM6nVlu"/>
      <point x="556" y="735" type="line" identifier="zNHTvxNemF"/>
      <point x="428" y="0" type="line" identifier="uscqyHmjzz"/>
    </contour>
    <contour>
      <point x="708" y="166" type="line" smooth="yes" identifier="WXvu3XJh9w"/>
      <point x="699" y="123" identifier="DVi8pEBZuE"/>
      <point x="695" y="94" identifier="fLUWyXBMXh"/>
      <point x="695" y="77" type="curve" smooth="yes" identifier="8SNHHG3SOU"/>
      <point x="695" y="56" identifier="voJlnpADKe"/>
      <point x="702" y="48" identifier="SYxnWIvlkF"/>
      <point x="722" y="48" type="curve" smooth="yes" identifier="2Ntj2y8D6y"/>
      <point x="739" y="48" identifier="VKdT34R5nv"/>
      <point x="762" y="56" identifier="iRNgSHXyxV"/>
      <point x="776" y="67" type="curve" identifier="GabzaFPAzh"/>
      <point x="768" y="20" type="line" identifier="6qMVp6XzAE"/>
      <point x="750" y="6" identifier="LNwKvg5zZ5"/>
      <point x="723" y="-7" identifier="mUBYIFZ3mT"/>
      <point x="688" y="-7" type="curve" identifier="ukWJTb8QYu"/>
      <point x="639" y="-7" identifier="wJdAU0NRJl"/>
      <point x="607" y="18" identifier="l9UMBckd2O"/>
      <point x="607" y="72" type="curve" identifier="AYZvzpTkty"/>
      <point x="607" y="95" identifier="6GnvCqgcXe"/>
      <point x="612" y="124" identifier="UvWxPHCZLg"/>
      <point x="622" y="172" type="curve" smooth="yes" identifier="0noswGCD7K"/>
      <point x="652" y="320" type="line" smooth="yes" identifier="kMsHq2kJoU"/>
      <point x="660" y="357" identifier="kH0Z9OZ9f1"/>
      <point x="665" y="387" identifier="oRvonCwZwX"/>
      <point x="665" y="411" type="curve" smooth="yes" identifier="xqfnGerhLm"/>
      <point x="665" y="441" identifier="U6GhRU4cgI"/>
      <point x="653" y="456" identifier="EmASIKYsya"/>
      <point x="626" y="456" type="curve" smooth="yes" identifier="IEYLWXiicC"/>
      <point x="581" y="456" identifier="wHPYyjpVCd"/>
      <point x="534" y="413" identifier="mVoLjv2575"/>
      <point x="464" y="294" type="curve" identifier="nyHt9MlC8H"/>
      <point x="450" y="318" type="line" identifier="00SymWIlqB"/>
      <point x="508" y="442" identifier="tzW6Y4Sz88"/>
      <point x="569" y="518" identifier="gcJBZkMVl4"/>
      <point x="652" y="518" type="curve" smooth="yes" identifier="6Al21phrGI"/>
      <point x="719" y="518" identifier="VYEJmNB8LO"/>
      <point x="752" y="482" identifier="GWvpbrH5t0"/>
      <point x="752" y="414" type="curve" smooth="yes" identifier="JLFyb1N7Rw"/>
      <point x="752" y="385" identifier="7ddwA8qzOb"/>
      <point x="747" y="355" identifier="AVfFKrNcYB"/>
      <point x="740" y="322" type="curve" smooth="yes" identifier="XO0byrBNcj"/>
    </contour>
  </outline>
</glyph>
<glyph name="five.oldtab" format="2">
  <advance width="462"/>
  <outline>
    <contour>
      <point x="231" y="-149" type="curve" smooth="yes"/>
      <point x="372" y="-149"/>
      <point x="459" y="-29"/>
      <point x="459" y="112" type="curve" smooth="yes"/>
      <point x="459" y="221"/>
      <point x="395" y="302"/>
      <point x="290" y="302" type="curve" smooth="yes"/>
      <point x="229" y="302"/>
      <point x="181" y="272"/>
      <point x="152" y="212" type="curve"/>
      <point x="171" y="209" type="line"/>
      <point x="228" y="531" type="line"/>
      <point x="196" y="475" type="line"/>
      <point x="458" y="475" type="line"/>
      <point x="480" y="548" type="line"/>
      <point x="174" y="548" type="line"/>
      <point x="108" y="176" type="line"/>
      <point x="156" y="176" type="line"/>
      <point x="181" y="220"/>
      <point x="216" y="248"/>
      <point x="267" y="248" type="curve" smooth="yes"/>
      <point x="335" y="248"/>
      <point x="371" y="195"/>
      <point x="371" y="112" type="curve" smooth="yes"/>
      <point x="371" y="10"/>
      <point x="331" y="-95"/>
      <point x="232" y="-95" type="curve" smooth="yes"/>
      <point x="149" y="-95"/>
      <point x="109" y="-28"/>
      <point x="90" y="37" type="curve"/>
      <point x="34" y="15" type="line"/>
      <point x="57" y="-75"/>
      <point x="120" y="-149"/>
    </contour>
  </outline>
</glyph>
<glyph name="four.lin" format="2">
  <advance width="462"/>
  <anchor x="422" y="422.0" identifier="S0QscI7CN1"/>
  <anchor x="54.0" y="213" identifier="Vhyin5uOU7"/>
  <anchor x="480.0" y="216" identifier="GolxAVun5i"/>
  <anchor x="181.0" y="43" identifier="T6Hf18v4cS"/>
  <anchor x="428.0" y="-14" identifier="acQjxKb1vy"/>
  <outline>
    <contour>
      <point x="278" y="79" type="line" smooth="yes"/>
      <point x="273" y="50"/>
      <point x="246" y="43"/>
      <point x="199" y="43" type="curve" smooth="yes"/>
      <point x="181" y="43" type="line"/>
      <point x="173" y="0" type="line"/>
      <point x="430" y="0" type="line"/>
      <point x="438" y="43" type="line"/>
      <point x="422" y="43" type="line" smooth="yes"/>
      <point x="381" y="43"/>
      <point x="356" y="50"/>
      <point x="361" y="79" type="curve" smooth="yes"/>
      <point x="472" y="710" type="line"/>
      <point x="397" y="710" type="line"/>
      <point x="382" y="682" type="line"/>
    </contour>
    <contour>
      <point x="66" y="213" type="line"/>
      <point x="476" y="213" type="line"/>
      <point x="487" y="274" type="line"/>
      <point x="105" y="274" type="line"/>
      <point x="104" y="234" type="line"/>
      <point x="394" y="671" type="line"/>
      <point x="419" y="710" type="line"/>
      <point x="364" y="710" type="line"/>
      <point x="78" y="279" type="line"/>
    </contour>
  </outline>
</glyph>
<glyph name="four.oldtab" format="2">
  <advance width="462"/>
  <outline>
    <contour>
      <point x="38" y="46" type="line"/>
      <point x="472" y="46" type="line"/>
      <point x="483" y="107" type="line"/>
      <point x="80" y="107" type="line"/>
      <point x="79" y="72" type="line"/>
      <point x="384" y="509" type="line"/>
      <point x="404" y="548" type="line"/>
      <point x="354" y="548" type="line"/>
      <point x="51" y="117" type="line"/>
    </contour>
    <contour>
      <point x="345" y="-136" type="line"/>
      <point x="465" y="548" type="line"/>
      <point x="390" y="548" type="line"/>
      <point x="375" y="520" type="line"/>
      <point x="260" y="-136" type="line"/>
    </contour>
  </outline>
</glyph>
<glyph name="k.italic" format="2">
  <advance width="523"/>
  <outline>
    <contour>
      <point x="549" y="0" type="line"/>
      <point x="549" y="45" type="line"/>
      <point x="547" y="45" type="line"/>
      <point x="516" y="45"/>
      <point x="491" y="51"/>
      <point x="467" y="83" type="curve" smooth="yes"/>
      <point x="302" y="308" type="line"/>
      <point x="300" y="265" type="line"/>
      <point x="428" y="414" type="line" smooth="yes"/>
      <point x="457" y="448"/>
      <point x="489" y="463"/>
      <point x="522" y="463" type="curve"/>
      <point x="524" y="463" type="line"/>
      <point x="524" y="508" type="line"/>
      <point x="320" y="508" type="line"/>
      <point x="320" y="463" type="line"/>
      <point x="323" y="463" type="line" smooth="yes"/>
      <point x="348" y="463"/>
      <point x="390" y="460"/>
      <point x="390" y="445" type="curve"/>
      <point x="241" y="273" type="line"/>
      <point x="241" y="268" type="line"/>
      <point x="397" y="55" type="line"/>
      <point x="397" y="48"/>
      <point x="361" y="45"/>
      <point x="338" y="45" type="curve" smooth="yes"/>
      <point x="335" y="45" type="line"/>
      <point x="335" y="0" type="line"/>
    </contour>
    <contour>
      <point x="220" y="735" type="line"/>
      <point x="77" y="735" type="line"/>
      <point x="77" y="689" type="line"/>
      <point x="85" y="687" type="line" smooth="yes"/>
      <point x="127" y="678"/>
      <point x="146" y="671"/>
      <point x="146" y="642" type="curve" smooth="yes"/>
      <point x="146" y="81" type="line" smooth="yes"/>
      <point x="146" y="52"/>
      <point x="118" y="45"/>
      <point x="79" y="45" type="curve"/>
      <point x="77" y="45" type="line"/>
      <point x="77" y="0" type="line"/>
      <point x="282" y="0" type="line"/>
      <point x="282" y="45" type="line"/>
      <point x="279" y="45" type="line" smooth="yes"/>
      <point x="257" y="45"/>
      <point x="220" y="48"/>
      <point x="220" y="55" type="curve" smooth="yes"/>
    </contour>
  </outline>
</glyph>
<glyph name="kgreenlandic" format="2">
  <advance width="459"/>
  <outline>
    <contour>
      <point x="77" y="0" type="line" identifier="jUx2UXcmIy"/>
      <point x="151" y="419" type="line" smooth="yes" identifier="CoyGoa45wm"/>
      <point x="155" y="449" identifier="lu5X72Svzi"/>
      <point x="137" y="457" identifier="N7tAL3JDTC"/>
      <point x="99" y="464" type="curve" smooth="yes" identifier="cPPEprRdU1"/>
      <point x="87" y="466" type="line" identifier="uscqyHmjzz"/>
      <point x="95" y="508" type="line" identifier="zNHTvxNemF"/>
      <point x="253" y="508" type="line" identifier="p6SoIB9Pad"/>
      <point x="163" y="0" type="line" identifier="mLDdIsea5U"/>
    </contour>
    <contour>
      <point x="370" y="129" type="line" smooth="yes" identifier="OrKq204Ukm"/>
      <point x="387" y="67" identifier="SrbOikPisr"/>
      <point x="395" y="55" identifier="JqDGTG4N6X"/>
      <point x="421" y="55" type="curve" smooth="yes" identifier="CfqUKLAWOF"/>
      <point x="438" y="55" identifier="rQtjRSZfYe"/>
      <point x="454" y="60" identifier="oRANyD78E8"/>
      <point x="474" y="71" type="curve" identifier="DsiTqjS1a4"/>
      <point x="465" y="21" type="line" identifier="XU0wPDT43j"/>
      <point x="445" y="2" identifier="4uDsKxaG48"/>
      <point x="421" y="-7" identifier="RuEiVchg2b"/>
      <point x="390" y="-7" type="curve" smooth="yes" identifier="CiQIyaUsYh"/>
      <point x="336" y="-7" identifier="vgo4GDX7Gt"/>
      <point x="307" y="19" identifier="ZkZGlxYZQ3"/>
      <point x="292" y="79" type="curve" smooth="yes" identifier="5W5RISOQnG"/>
      <point x="241" y="287" type="line" identifier="QfrWYJxh65"/>
      <point x="241" y="292" type="line" identifier="pEiAcrm5ik"/>
      <point x="306" y="364" identifier="wpOgpdOUgL"/>
      <point x="370" y="436" identifier="SAwY06OaRj"/>
      <point x="434" y="508" type="curve" identifier="Y23wxsbw9Y"/>
      <point x="514" y="508" type="line" identifier="AVyxpv4CWq"/>
      <point x="514" y="498" type="line" identifier="5uNVMITTO2"/>
      <point x="433" y="419" identifier="FzmmjB3U5Q"/>
      <point x="353" y="340" identifier="pMEOS9kiEq"/>
      <point x="272" y="261" type="curve" identifier="r33tV75480"/>
      <point x="320" y="311" type="line" identifier="ZTC9hCIUEV"/>
    </contour>
  </outline>
</glyph>
<glyph name="m.italic" format="2">
  <advance width="752"/>
  <outline>
    <contour>
      <point x="77" y="0" type="line"/>
      <point x="277" y="0" type="line"/>
      <point x="277" y="45" type="line"/>
      <point x="275" y="45" type="line" smooth="yes"/>
      <point x="253" y="45"/>
      <point x="219" y="48"/>
      <point x="219" y="55" type="curve" smooth="yes"/>
      <point x="219" y="392" type="line"/>
      <point x="211" y="404" type="line"/>
      <point x="211" y="508" type="line"/>
      <point x="77" y="508" type="line"/>
      <point x="77" y="462" type="line"/>
      <point x="85" y="460" type="line" smooth="yes"/>
      <point x="126" y="450"/>
      <point x="145" y="444"/>
      <point x="145" y="415" type="curve" smooth="yes"/>
      <point x="145" y="81" type="line" smooth="yes"/>
      <point x="145" y="52"/>
      <point x="118" y="45"/>
      <point x="78" y="45" type="curve" smooth="yes"/>
      <point x="77" y="45" type="line"/>
    </contour>
    <contour>
      <point x="522" y="0" type="line"/>
      <point x="522" y="45" type="line"/>
      <point x="521" y="45" type="line"/>
      <point x="497" y="45"/>
      <point x="463" y="48"/>
      <point x="463" y="55" type="curve" smooth="yes"/>
      <point x="463" y="357" type="line" smooth="yes"/>
      <point x="463" y="468"/>
      <point x="415" y="518"/>
      <point x="344" y="518" type="curve" smooth="yes"/>
      <point x="284" y="518"/>
      <point x="246" y="482"/>
      <point x="205" y="411" type="curve"/>
      <point x="205" y="341" type="line"/>
      <point x="242" y="414"/>
      <point x="281" y="455"/>
      <point x="332" y="455" type="curve" smooth="yes"/>
      <point x="376" y="455"/>
      <point x="390" y="421"/>
      <point x="390" y="345" type="curve" smooth="yes"/>
      <point x="390" y="55" type="line" smooth="yes"/>
      <point x="390" y="48"/>
      <point x="356" y="45"/>
      <point x="333" y="45" type="curve" smooth="yes"/>
      <point x="331" y="45" type="line"/>
      <point x="331" y="0" type="line"/>
    </contour>
    <contour>
      <point x="778" y="0" type="line"/>
      <point x="778" y="45" type="line"/>
      <point x="775" y="45" type="line" smooth="yes"/>
      <point x="736" y="45"/>
      <point x="707" y="52"/>
      <point x="707" y="81" type="curve" smooth="yes"/>
      <point x="707" y="357" type="line" smooth="yes"/>
      <point x="707" y="468"/>
      <point x="659" y="518"/>
      <point x="588" y="518" type="curve" smooth="yes"/>
      <point x="528" y="518"/>
      <point x="490" y="482"/>
      <point x="449" y="411" type="curve"/>
      <point x="449" y="341" type="line"/>
      <point x="486" y="414"/>
      <point x="526" y="455"/>
      <point x="576" y="455" type="curve" smooth="yes"/>
      <point x="620" y="455"/>
      <point x="634" y="421"/>
      <point x="634" y="345" type="curve" smooth="yes"/>
      <point x="634" y="55" type="line" smooth="yes"/>
      <point x="634" y="49"/>
      <point x="601" y="45"/>
      <point x="579" y="45" type="curve" smooth="yes"/>
      <point x="576" y="45" type="line"/>
      <point x="576" y="0" type="line"/>
    </contour>
  </outline>
</glyph>
<glyph name="one.old" format="2">
  <advance width="462"/>
  <outline>
    <contour>
      <point x="316" y="79" type="curve" smooth="yes"/>
      <point x="383" y="548" type="line"/>
      <point x="323" y="548" type="line"/>
      <point x="286" y="497"/>
      <point x="221" y="474"/>
      <point x="143" y="472" type="curve"/>
      <point x="133" y="418" type="line"/>
      <point x="206" y="416"/>
      <point x="279" y="446"/>
      <point x="303" y="492" type="curve"/>
      <point x="309" y="505"/>
      <point x="298" y="505"/>
      <point x="284" y="483" type="curve"/>
      <point x="228" y="79" type="line" smooth="yes"/>
      <point x="225" y="50"/>
      <point x="188" y="43"/>
      <point x="138" y="43" type="curve" smooth="yes"/>
      <point x="97" y="43" type="line"/>
      <point x="90" y="0" type="line"/>
      <point x="428" y="0" type="line"/>
      <point x="436" y="43" type="line"/>
      <point x="406" y="43" type="line" smooth="yes"/>
      <point x="343" y="43"/>
      <point x="311" y="50"/>
    </contour>
  </outline>
</glyph>
<glyph name="parenleft.uc" format="2">
  <advance width="272"/>
  <guideline x="332" y="45" angle="80" identifier="qR9wEIc2Ay"/>
  <outline>
    <contour>
      <point x="203" y="-60" type="curve"/>
      <point x="265" y="-60" type="line"/>
      <point x="265" y="-57" type="line"/>
      <point x="210" y="5"/>
      <point x="167" y="122"/>
      <point x="167" y="281" type="curve" smooth="yes"/>
      <point x="167" y="530"/>
      <point x="275" y="679"/>
      <point x="387" y="763" type="curve"/>
      <point x="387" y="766" type="line"/>
      <point x="325" y="766" type="line"/>
      <point x="206" y="706"/>
      <point x="84" y="545"/>
      <point x="84" y="289" type="curve" smooth="yes"/>
      <point x="84" y="128"/>
      <point x="134" y="3"/>
    </contour>
  </outline>
</glyph>
<glyph name="six.midprop" format="2">
  <advance width="481"/>
  <outline>
    <contour>
      <point x="489" y="688" type="line"/>
      <point x="320" y="645"/>
      <point x="246" y="561"/>
      <point x="191" y="383" type="curve" smooth="yes"/>
      <point x="172" y="321"/>
      <point x="163" y="266"/>
      <point x="163" y="210" type="curve" smooth="yes"/>
      <point x="163" y="101"/>
      <point x="198" y="44"/>
      <point x="256" y="44" type="curve" smooth="yes"/>
      <point x="304" y="44"/>
      <point x="341" y="74"/>
      <point x="364" y="123" type="curve" smooth="yes"/>
      <point x="383" y="164"/>
      <point x="393" y="217"/>
      <point x="393" y="276" type="curve" smooth="yes"/>
      <point x="393" y="357"/>
      <point x="368" y="400"/>
      <point x="316" y="400" type="curve" smooth="yes"/>
      <point x="263" y="400"/>
      <point x="203" y="353"/>
      <point x="155" y="266" type="curve"/>
      <point x="149" y="302" type="line"/>
      <point x="188" y="398"/>
      <point x="258" y="454"/>
      <point x="334" y="454" type="curve" smooth="yes"/>
      <point x="425" y="454"/>
      <point x="483" y="378"/>
      <point x="483" y="271" type="curve" smooth="yes"/>
      <point x="483" y="110"/>
      <point x="384" y="-10"/>
      <point x="256" y="-10" type="curve" smooth="yes"/>
      <point x="138" y="-10"/>
      <point x="75" y="74"/>
      <point x="75" y="234" type="curve" smooth="yes"/>
      <point x="75" y="484"/>
      <point x="226" y="691"/>
      <point x="487" y="741" type="curve"/>
    </contour>
  </outline>
</glyph>
<glyph name="six.oldtab" format="2">
  <advance width="462"/>
  <outline>
    <contour>
      <point x="490" y="688" type="line"/>
      <point x="330" y="645"/>
      <point x="240" y="557"/>
      <point x="188" y="383" type="curve" smooth="yes"/>
      <point x="169" y="321"/>
      <point x="160" y="266"/>
      <point x="160" y="210" type="curve" smooth="yes"/>
      <point x="160" y="101"/>
      <point x="196" y="44"/>
      <point x="255" y="44" type="curve" smooth="yes"/>
      <point x="302" y="44"/>
      <point x="338" y="74"/>
      <point x="361" y="123" type="curve" smooth="yes"/>
      <point x="380" y="164"/>
      <point x="391" y="217"/>
      <point x="391" y="276" type="curve" smooth="yes"/>
      <point x="391" y="356"/>
      <point x="366" y="398"/>
      <point x="316" y="398" type="curve" smooth="yes"/>
      <point x="262" y="398"/>
      <point x="200" y="352"/>
      <point x="152" y="266" type="curve"/>
      <point x="146" y="302" type="line"/>
      <point x="185" y="397"/>
      <point x="257" y="452"/>
      <point x="334" y="452" type="curve" smooth="yes"/>
      <point x="424" y="452"/>
      <point x="481" y="377"/>
      <point x="481" y="271" type="curve" smooth="yes"/>
      <point x="481" y="110"/>
      <point x="383" y="-10"/>
      <point x="255" y="-10" type="curve" smooth="yes"/>
      <point x="136" y="-10"/>
      <point x="72" y="74"/>
      <point x="72" y="234" type="curve" smooth="yes"/>
      <point x="72" y="484"/>
      <point x="236" y="692"/>
      <point x="488" y="741" type="curve"/>
    </contour>
  </outline>
</glyph>
<glyph name="three.old" format="2">
  <advance width="462"/>
  <outline>
    <contour>
      <point x="278" y="223" type="line"/>
      <point x="395" y="223"/>
      <point x="467" y="295"/>
      <point x="467" y="397" type="curve" smooth="yes"/>
      <point x="467" y="495"/>
      <point x="396" y="558"/>
      <point x="290" y="558" type="curve" smooth="yes"/>
      <point x="217" y="558"/>
      <point x="160" y="524"/>
      <point x="128" y="498" type="curve"/>
      <point x="113" y="380" type="line"/>
      <point x="193" y="380" type="line"/>
      <point x="203" y="483" type="line"/>
      <point x="173" y="481"/>
      <point x="164" y="466"/>
      <point x="157" y="440" type="curve"/>
      <point x="185" y="472"/>
      <point x="229" y="504"/>
      <point x="285" y="504" type="curve" smooth="yes"/>
      <point x="350" y="504"/>
      <point x="380" y="463"/>
      <point x="380" y="397" type="curve" smooth="yes"/>
      <point x="380" y="306"/>
      <point x="337" y="251"/>
      <point x="241" y="251" type="curve" smooth="yes"/>
      <point x="188" y="251" type="line"/>
      <point x="178" y="199" type="line"/>
      <point x="225" y="199" type="line" smooth="yes"/>
      <point x="338" y="199"/>
      <point x="366" y="139"/>
      <point x="366" y="62" type="curve" smooth="yes"/>
      <point x="366" y="-27"/>
      <point x="327" y="-95"/>
      <point x="244" y="-95" type="curve" smooth="yes"/>
      <point x="154" y="-95"/>
      <point x="98" y="-15"/>
      <point x="76" y="64" type="curve"/>
      <point x="25" y="32" type="line"/>
      <point x="55" y="-78"/>
      <point x="131" y="-149"/>
      <point x="244" y="-149" type="curve" smooth="yes"/>
      <point x="368" y="-149"/>
      <point x="453" y="-68"/>
      <point x="453" y="55" type="curve" smooth="yes"/>
      <point x="453" y="145"/>
      <point x="404" y="218"/>
      <point x="265" y="231" type="curve"/>
      <point x="313" y="216" type="line"/>
      <point x="319" y="237" type="line"/>
    </contour>
  </outline>
</glyph>
<glyph name="three.oldtab" format="2">
  <advance width="462"/>
  <outline>
    <contour>
      <point x="223" y="-148" type="curve" smooth="yes" identifier="ohn7sd9cH8"/>
      <point x="119.06598984771573" y="-148.0" identifier="DMj1xmIUuy"/>
      <point x="49.22610053767488" y="-85.20586953426601" identifier="6QLyJqhuny"/>
      <point x="28" y="28" type="curve" identifier="uR3be4UGfp"/>
      <point x="82" y="44" type="line" identifier="le9OjM9Htv"/>
      <point x="104.28902344729512" y="-48.19550607744799" identifier="KY9DqoArdr"/>
      <point x="150.0281690140845" y="-94.0" identifier="FyLXnofNg4"/>
      <point x="222" y="-94" type="curve" smooth="yes" identifier="bgUM8BwQtG"/>
      <point x="306.0" y="-94.0" identifier="rSjzCDd1wE"/>
      <point x="354.0" y="-38.0" identifier="aLpgyv3Ht9"/>
      <point x="354" y="60" type="curve" smooth="yes" identifier="QwhePGo7TC"/>
      <point x="354.0" y="153.66197183098592" identifier="QLkMAJgdaY"/>
      <point x="309.6716417910448" y="200" identifier="SZOkYM0ikG"/>
      <point x="219" y="200" type="curve" smooth="yes" identifier="hDvHwkU5li"/>
      <point x="173" y="200" type="line" identifier="qgt09iH6Fx"/>
      <point x="183" y="252" type="line" identifier="Ff5VREDK7I"/>
      <point x="238" y="252.0" type="line" smooth="yes" identifier="0Uudh5nS5C"/>
      <point x="333" y="252" identifier="k0E2VdVna7"/>
      <point x="381" y="312" identifier="u24RtgEtaL"/>
      <point x="381" y="397" type="curve" smooth="yes" identifier="bWwqqD5hsv"/>
      <point x="381" y="463" identifier="7z5z9AHSsi"/>
      <point x="350" y="504" identifier="yE2U3G21gP"/>
      <point x="288" y="504" type="curve" smooth="yes" identifier="bzPPZ7PBW1"/>
      <point x="233" y="504" identifier="QhSbxSCHQV"/>
      <point x="193" y="482" identifier="VJK9MkYq25"/>
      <point x="163" y="444" type="curve" identifier="nQRwQl70Bx"/>
      <point x="173" y="468" identifier="xogK6N6L3f"/>
      <point x="184" y="483" identifier="Q7kvkjN5LO"/>
      <point x="208" y="485" type="curve" identifier="tTKedNT7cQ"/>
      <point x="193" y="381" type="line" identifier="l8AXsxdkxr"/>
      <point x="114" y="381" type="line" identifier="xbb6ADrjT3"/>
      <point x="133" y="500" type="line" identifier="Bt97JxBkTk"/>
      <point x="163.34889407397884" y="525.453911158821" identifier="Fml6VonJQP"/>
      <point x="219.90683229813664" y="558.0" identifier="P1XYO5o5z4"/>
      <point x="292" y="558" type="curve" smooth="yes" identifier="9WdUanxhUa"/>
      <point x="400.4651162790698" y="558.0" identifier="RH91uiXkG8"/>
      <point x="468.0" y="499.0" identifier="IOeobe92FY"/>
      <point x="468" y="397" type="curve" smooth="yes" identifier="0k51CkIYO5"/>
      <point x="468.0" y="295.1771428571429" identifier="QHxnkLKCNW"/>
      <point x="387.22388059701495" y="224.0" identifier="dDZ4EpD1XA"/>
      <point x="270" y="224" type="curve" identifier="7hxNfcyLKg"/>
      <point x="286" y="235" type="line" identifier="aVHNBJKyLI"/>
      <point x="285" y="218" type="line" identifier="ut7VbNDCl1"/>
      <point x="257" y="232" type="line" identifier="rbI0jUdvUg"/>
      <point x="376.6466631064985" y="220.940224418727" identifier="RYzdq8JJUc"/>
      <point x="441.0" y="160.82758620689654" identifier="zH5kZaRouM"/>
      <point x="441" y="60" type="curve" smooth="yes" identifier="2i3BLbRS7a"/>
      <point x="441.0" y="-59.999999999999986" identifier="xEV3ZbFLMl"/>
      <point x="348.0" y="-148.0" identifier="1BzhfTcIJq"/>
    </contour>
  </outline>
</glyph>
<glyph name="two.lin" format="2">
  <advance width="462"/>
  <anchor x="44.5" y="43.0" identifier="mE7B3xhAu6"/>
  <outline>
    <contour>
      <point x="37" y="0" type="line"/>
      <point x="52" y="86" type="line"/>
      <point x="343.2159638335967" y="325.8249113923738"/>
      <point x="408.0" y="399"/>
      <point x="408" y="558" type="curve" smooth="yes"/>
      <point x="408" y="629"/>
      <point x="374" y="667"/>
      <point x="309" y="667" type="curve" smooth="yes"/>
      <point x="239" y="667.0"/>
      <point x="191" y="627"/>
      <point x="173" y="601" type="curve"/>
      <point x="174" y="622"/>
      <point x="190" y="649"/>
      <point x="217" y="650" type="curve"/>
      <point x="196" y="533" type="line"/>
      <point x="119" y="533" type="line"/>
      <point x="141" y="657" type="line"/>
      <point x="175" y="682"/>
      <point x="235" y="720.0"/>
      <point x="316" y="720" type="curve" smooth="yes"/>
      <point x="432" y="720"/>
      <point x="496" y="663"/>
      <point x="496" y="559" type="curve" smooth="yes"/>
      <point x="496" y="376"/>
      <point x="384.31125128731776" y="283.80353379141513"/>
      <point x="77" y="44" type="curve"/>
      <point x="76" y="70" type="line"/>
      <point x="273" y="70" type="line" smooth="yes"/>
      <point x="340.0" y="70.0"/>
      <point x="368" y="77"/>
      <point x="377" y="111" type="curve" smooth="yes"/>
      <point x="397" y="185" type="line"/>
      <point x="448" y="185" type="line"/>
      <point x="415" y="0" type="line"/>
    </contour>
  </outline>
</glyph>
<glyph name="zero.old" format="2">
  <advance width="462"/>
  <outline>
    <contour>
      <point x="250" y="-12" type="curve" smooth="yes"/>
      <point x="411" y="-12"/>
      <point x="481" y="158"/>
      <point x="481" y="316" type="curve" smooth="yes"/>
      <point x="481" y="466"/>
      <point x="403" y="558"/>
      <point x="302" y="558" type="curve" smooth="yes"/>
      <point x="141" y="558"/>
      <point x="71" y="388"/>
      <point x="71" y="231" type="curve" smooth="yes"/>
      <point x="71" y="80"/>
      <point x="149" y="-12"/>
    </contour>
    <contour>
      <point x="255" y="40" type="curve" smooth="yes"/>
      <point x="195" y="40"/>
      <point x="159" y="100"/>
      <point x="159" y="215" type="curve" smooth="yes"/>
      <point x="159" y="242"/>
      <point x="161" y="270"/>
      <point x="165" y="297" type="curve" smooth="yes"/>
      <point x="180" y="417"/>
      <point x="226" y="506"/>
      <point x="297" y="506" type="curve" smooth="yes"/>
      <point x="357" y="506"/>
      <point x="392" y="446"/>
      <point x="392" y="331" type="curve" smooth="yes"/>
      <point x="392" y="304"/>
      <point x="391" y="276"/>
      <point x="387" y="249" type="curve" smooth="yes"/>
      <point x="371" y="130"/>
      <point x="326" y="40"/>
    </contour>
  </outline>
</glyph>
